<?xml version="1.0" encoding="utf-8" standalone="no"?>
<!DOCTYPE svg PUBLIC "-//W3C//DTD SVG 1.1//EN"
  "http://www.w3.org/Graphics/SVG/1.1/DTD/svg11.dtd">
<svg xmlns:xlink="http://www.w3.org/1999/xlink" width="712.665pt" height="496.235625pt" viewBox="0 0 712.665 496.235625" xmlns="http://www.w3.org/2000/svg" version="1.1">
 <metadata>
  <rdf:RDF xmlns:dc="http://purl.org/dc/elements/1.1/" xmlns:cc="http://creativecommons.org/ns#" xmlns:rdf="http://www.w3.org/1999/02/22-rdf-syntax-ns#">
   <cc:Work>
    <dc:type rdf:resource="http://purl.org/dc/dcmitype/StillImage"/>
    <dc:date>2026-07-16T02:09:19.935817</dc:date>
    <dc:format>image/svg+xml</dc:format>
    <dc:creator>
     <cc:Agent>
      <dc:title>Matplotlib v3.11.0, https://matplotlib.org/</dc:title>
     </cc:Agent>
    </dc:creator>
   </cc:Work>
  </rdf:RDF>
 </metadata>
 <defs>
  <style type="text/css">*{stroke-linejoin: round; stroke-linecap: butt}</style>
 </defs>
 <g id="figure_1">
  <g id="patch_1">
   <path d="M 0 496.235625 
L 712.665 496.235625 
L 712.665 0 
L 0 0 
z
" style="fill: #ffffff"/>
  </g>
  <g id="axes_1">
   <g id="patch_2">
    <path d="M 48.625 458.034844 
L 705.465 458.034844 
L 705.465 22.317187 
L 48.625 22.317187 
z
" style="fill: #ffffff"/>
   </g>
   <g id="patch_3">
    <path d="M 48.625 42.122536 
L 148.086813 42.122536 
L 148.086813 58.126857 
L 48.625 58.126857 
z
" clip-path="url(#p70dfc18851)" style="fill: #1f77b4"/>
   </g>
   <g id="patch_4">
    <path d="M 48.625 62.127938 
L 151.529009 62.127938 
L 151.529009 78.132259 
L 48.625 78.132259 
z
" clip-path="url(#p70dfc18851)" style="fill: #1f77b4"/>
   </g>
   <g id="patch_5">
    <path d="M 48.625 82.13334 
L 112.720826 82.13334 
L 112.720826 98.137661 
L 48.625 98.137661 
z
" clip-path="url(#p70dfc18851)" style="fill: #1f77b4"/>
   </g>
   <g id="patch_6">
    <path d="M 48.625 102.138742 
L 123.229227 102.138742 
L 123.229227 118.143063 
L 48.625 118.143063 
z
" clip-path="url(#p70dfc18851)" style="fill: #1f77b4"/>
   </g>
   <g id="patch_7">
    <path d="M 48.625 122.144144 
L 176.433797 122.144144 
L 176.433797 138.148465 
L 48.625 138.148465 
z
" clip-path="url(#p70dfc18851)" style="fill: #1f77b4"/>
   </g>
   <g id="patch_8">
    <path d="M 48.625 142.149546 
L 195.716389 142.149546 
L 195.716389 158.153867 
L 48.625 158.153867 
z
" clip-path="url(#p70dfc18851)" style="fill: #1f77b4"/>
   </g>
   <g id="patch_9">
    <path d="M 48.625 162.154948 
L 201.153276 162.154948 
L 201.153276 178.159269 
L 48.625 178.159269 
z
" clip-path="url(#p70dfc18851)" style="fill: #1f77b4"/>
   </g>
   <g id="patch_10">
    <path d="M 48.625 182.16035 
L 68.250238 182.16035 
L 68.250238 198.164671 
L 48.625 198.164671 
z
" clip-path="url(#p70dfc18851)" style="fill: #1f77b4"/>
   </g>
   <g id="patch_11">
    <path d="M 48.625 202.165752 
L 197.73031 202.165752 
L 197.73031 218.170073 
L 48.625 218.170073 
z
" clip-path="url(#p70dfc18851)" style="fill: #1f77b4"/>
   </g>
   <g id="patch_12">
    <path d="M 48.625 222.171154 
L 204.525545 222.171154 
L 204.525545 238.175475 
L 48.625 238.175475 
z
" clip-path="url(#p70dfc18851)" style="fill: #1f77b4"/>
   </g>
   <g id="patch_13">
    <path d="M 48.625 242.176556 
L 197.808979 242.176556 
L 197.808979 258.180877 
L 48.625 258.180877 
z
" clip-path="url(#p70dfc18851)" style="fill: #1f77b4"/>
   </g>
   <g id="patch_14">
    <path d="M 48.625 262.181958 
L 217.937697 262.181958 
L 217.937697 278.186279 
L 48.625 278.186279 
z
" clip-path="url(#p70dfc18851)" style="fill: #1f77b4"/>
   </g>
   <g id="patch_15">
    <path d="M 48.625 282.18736 
L 218.233142 282.18736 
L 218.233142 298.191682 
L 48.625 298.191682 
z
" clip-path="url(#p70dfc18851)" style="fill: #1f77b4"/>
   </g>
   <g id="patch_16">
    <path d="M 48.625 302.192762 
L 219.757569 302.192762 
L 219.757569 318.197084 
L 48.625 318.197084 
z
" clip-path="url(#p70dfc18851)" style="fill: #1f77b4"/>
   </g>
   <g id="patch_17">
    <path d="M 48.625 322.198164 
L 202.784342 322.198164 
L 202.784342 338.202486 
L 48.625 338.202486 
z
" clip-path="url(#p70dfc18851)" style="fill: #1f77b4"/>
   </g>
   <g id="patch_18">
    <path d="M 48.625 342.203566 
L 98.193324 342.203566 
L 98.193324 358.207888 
L 48.625 358.207888 
z
" clip-path="url(#p70dfc18851)" style="fill: #1f77b4"/>
   </g>
   <g id="patch_19">
    <path d="M 48.625 362.208968 
L 333.580805 362.208968 
L 333.580805 378.21329 
L 48.625 378.21329 
z
" clip-path="url(#p70dfc18851)" style="fill: #1f77b4"/>
   </g>
   <g id="patch_20">
    <path d="M 48.625 382.21437 
L 352.209572 382.21437 
L 352.209572 398.218692 
L 48.625 398.218692 
z
" clip-path="url(#p70dfc18851)" style="fill: #1f77b4"/>
   </g>
   <g id="patch_21">
    <path d="M 48.625 402.219772 
L 425.628522 402.219772 
L 425.628522 418.224094 
L 48.625 418.224094 
z
" clip-path="url(#p70dfc18851)" style="fill: #1f77b4"/>
   </g>
   <g id="patch_22">
    <path d="M 48.625 422.225174 
L 674.186905 422.225174 
L 674.186905 438.229496 
L 48.625 438.229496 
z
" clip-path="url(#p70dfc18851)" style="fill: #1f77b4"/>
   </g>
   <g id="matplotlib.axis_1">
    <g id="xtick_1">
     <g id="line2d_1">
      <defs>
       <path id="m6f7faac534" d="M 0 0 
L 0 3.5 
" style="stroke: #000000; stroke-width: 0.8"/>
      </defs>
      <g>
       <use xlink:href="#m6f7faac534" x="48.625" y="458.034844" style="stroke: #000000; stroke-width: 0.8"/>
      </g>
     </g>
     <g id="text_1">
      <!-- 0 -->
      <g transform="translate(45.44375 472.6325) scale(0.1 -0.1)">
       <defs>
        <path id="DejaVuSans-13" d="M 2034 4250 
Q 1547 4250 1301 3770 
Q 1056 3291 1056 2328 
Q 1056 1369 1301 889 
Q 1547 409 2034 409 
Q 2525 409 2770 889 
Q 3016 1369 3016 2328 
Q 3016 3291 2770 3770 
Q 2525 4250 2034 4250 
z
M 2034 4750 
Q 2819 4750 3233 4129 
Q 3647 3509 3647 2328 
Q 3647 1150 3233 529 
Q 2819 -91 2034 -91 
Q 1250 -91 836 529 
Q 422 1150 422 2328 
Q 422 3509 836 4129 
Q 1250 4750 2034 4750 
z
" transform="scale(0.015625)"/>
       </defs>
       <use xlink:href="#DejaVuSans-13"/>
      </g>
     </g>
    </g>
    <g id="xtick_2">
     <g id="line2d_2">
      <g>
       <use xlink:href="#m6f7faac534" x="136.034756" y="458.034844" style="stroke: #000000; stroke-width: 0.8"/>
      </g>
     </g>
     <g id="text_2">
      <!-- 5 -->
      <g transform="translate(132.853506 472.6325) scale(0.1 -0.1)">
       <defs>
        <path id="DejaVuSans-18" d="M 691 4666 
L 3169 4666 
L 3169 4134 
L 1269 4134 
L 1269 2991 
Q 1406 3038 1543 3061 
Q 1681 3084 1819 3084 
Q 2600 3084 3056 2656 
Q 3513 2228 3513 1497 
Q 3513 744 3044 326 
Q 2575 -91 1722 -91 
Q 1428 -91 1123 -41 
Q 819 9 494 109 
L 494 744 
Q 775 591 1075 516 
Q 1375 441 1709 441 
Q 2250 441 2565 725 
Q 2881 1009 2881 1497 
Q 2881 1984 2565 2268 
Q 2250 2553 1709 2553 
Q 1456 2553 1204 2497 
Q 953 2441 691 2322 
L 691 4666 
z
" transform="scale(0.015625)"/>
       </defs>
       <use xlink:href="#DejaVuSans-18"/>
      </g>
     </g>
    </g>
    <g id="xtick_3">
     <g id="line2d_3">
      <g>
       <use xlink:href="#m6f7faac534" x="223.444512" y="458.034844" style="stroke: #000000; stroke-width: 0.8"/>
      </g>
     </g>
     <g id="text_3">
      <!-- 10 -->
      <g transform="translate(217.082012 472.6325) scale(0.1 -0.1)">
       <defs>
        <path id="DejaVuSans-14" d="M 794 531 
L 1825 531 
L 1825 4091 
L 703 3866 
L 703 4441 
L 1819 4666 
L 2450 4666 
L 2450 531 
L 3481 531 
L 3481 0 
L 794 0 
L 794 531 
z
" transform="scale(0.015625)"/>
       </defs>
       <use xlink:href="#DejaVuSans-14"/>
       <use xlink:href="#DejaVuSans-13" transform="translate(63.625 0)"/>
      </g>
     </g>
    </g>
    <g id="xtick_4">
     <g id="line2d_4">
      <g>
       <use xlink:href="#m6f7faac534" x="310.854268" y="458.034844" style="stroke: #000000; stroke-width: 0.8"/>
      </g>
     </g>
     <g id="text_4">
      <!-- 15 -->
      <g transform="translate(304.491768 472.6325) scale(0.1 -0.1)">
       <use xlink:href="#DejaVuSans-14"/>
       <use xlink:href="#DejaVuSans-18" transform="translate(63.625 0)"/>
      </g>
     </g>
    </g>
    <g id="xtick_5">
     <g id="line2d_5">
      <g>
       <use xlink:href="#m6f7faac534" x="398.264024" y="458.034844" style="stroke: #000000; stroke-width: 0.8"/>
      </g>
     </g>
     <g id="text_5">
      <!-- 20 -->
      <g transform="translate(391.901524 472.6325) scale(0.1 -0.1)">
       <defs>
        <path id="DejaVuSans-15" d="M 1228 531 
L 3431 531 
L 3431 0 
L 469 0 
L 469 531 
Q 828 903 1448 1529 
Q 2069 2156 2228 2338 
Q 2531 2678 2651 2914 
Q 2772 3150 2772 3378 
Q 2772 3750 2511 3984 
Q 2250 4219 1831 4219 
Q 1534 4219 1204 4116 
Q 875 4013 500 3803 
L 500 4441 
Q 881 4594 1212 4672 
Q 1544 4750 1819 4750 
Q 2544 4750 2975 4387 
Q 3406 4025 3406 3419 
Q 3406 3131 3298 2873 
Q 3191 2616 2906 2266 
Q 2828 2175 2409 1742 
Q 1991 1309 1228 531 
z
" transform="scale(0.015625)"/>
       </defs>
       <use xlink:href="#DejaVuSans-15"/>
       <use xlink:href="#DejaVuSans-13" transform="translate(63.625 0)"/>
      </g>
     </g>
    </g>
    <g id="xtick_6">
     <g id="line2d_6">
      <g>
       <use xlink:href="#m6f7faac534" x="485.67378" y="458.034844" style="stroke: #000000; stroke-width: 0.8"/>
      </g>
     </g>
     <g id="text_6">
      <!-- 25 -->
      <g transform="translate(479.31128 472.6325) scale(0.1 -0.1)">
       <use xlink:href="#DejaVuSans-15"/>
       <use xlink:href="#DejaVuSans-18" transform="translate(63.625 0)"/>
      </g>
     </g>
    </g>
    <g id="xtick_7">
     <g id="line2d_7">
      <g>
       <use xlink:href="#m6f7faac534" x="573.083536" y="458.034844" style="stroke: #000000; stroke-width: 0.8"/>
      </g>
     </g>
     <g id="text_7">
      <!-- 30 -->
      <g transform="translate(566.721036 472.6325) scale(0.1 -0.1)">
       <defs>
        <path id="DejaVuSans-16" d="M 2597 2516 
Q 3050 2419 3304 2112 
Q 3559 1806 3559 1356 
Q 3559 666 3084 287 
Q 2609 -91 1734 -91 
Q 1441 -91 1130 -33 
Q 819 25 488 141 
L 488 750 
Q 750 597 1062 519 
Q 1375 441 1716 441 
Q 2309 441 2620 675 
Q 2931 909 2931 1356 
Q 2931 1769 2642 2001 
Q 2353 2234 1838 2234 
L 1294 2234 
L 1294 2753 
L 1863 2753 
Q 2328 2753 2575 2939 
Q 2822 3125 2822 3475 
Q 2822 3834 2567 4026 
Q 2313 4219 1838 4219 
Q 1578 4219 1281 4162 
Q 984 4106 628 3988 
L 628 4550 
Q 988 4650 1302 4700 
Q 1616 4750 1894 4750 
Q 2613 4750 3031 4423 
Q 3450 4097 3450 3541 
Q 3450 3153 3228 2886 
Q 3006 2619 2597 2516 
z
" transform="scale(0.015625)"/>
       </defs>
       <use xlink:href="#DejaVuSans-16"/>
       <use xlink:href="#DejaVuSans-13" transform="translate(63.625 0)"/>
      </g>
     </g>
    </g>
    <g id="xtick_8">
     <g id="line2d_8">
      <g>
       <use xlink:href="#m6f7faac534" x="660.493292" y="458.034844" style="stroke: #000000; stroke-width: 0.8"/>
      </g>
     </g>
     <g id="text_8">
      <!-- 35 -->
      <g transform="translate(654.130792 472.6325) scale(0.1 -0.1)">
       <use xlink:href="#DejaVuSans-16"/>
       <use xlink:href="#DejaVuSans-18" transform="translate(63.625 0)"/>
      </g>
     </g>
    </g>
    <g id="text_9">
     <!-- 出現率差（歯牙障害 - All） -->
     <g transform="translate(308.489531 486.633281) scale(0.1 -0.1)">
      <defs>
       <path id="LastResortHE-Regular-7a" d="M 6731 -747 
L 6731 4250 
Q 6731 4409 6656 4534 
Q 6578 4663 6451 4738 
Q 6325 4813 6169 4813 
L 1175 4813 
Q 1022 4813 894 4738 
Q 766 4659 689 4532 
Q 613 4406 613 4250 
L 613 -747 
Q 613 -903 691 -1028 
Q 766 -1156 894 -1232 
Q 1022 -1309 1175 -1309 
L 6169 -1309 
Q 6328 -1309 6453 -1231 
Q 6581 -1156 6656 -1028 
Q 6731 -900 6731 -747 
z
M 4131 4266 
L 3991 4431 
L 3991 4266 
L 3875 4266 
L 3875 4738 
L 3991 4738 
L 3991 4563 
L 4141 4738 
L 4250 4738 
L 4044 4500 
L 4250 4266 
L 4131 4266 
z
M 3791 4369 
Q 3791 4266 3691 4266 
L 3578 4266 
Q 3478 4266 3478 4369 
L 3478 4484 
L 3594 4484 
L 3594 4375 
L 3606 4344 
L 3634 4331 
L 3666 4344 
L 3678 4375 
L 3678 4738 
L 3791 4738 
L 3791 4369 
z
M 3344 4381 
L 3406 4381 
Q 3403 4266 3300 4266 
L 3200 4266 
Q 3094 4266 3094 4375 
L 3094 4628 
Q 3094 4738 3200 4738 
L 3300 4738 
Q 3400 4738 3406 4619 
L 3344 4619 
Q 3341 4669 3300 4669 
L 3253 4669 
L 3222 4656 
L 3206 4625 
L 3206 4375 
L 3222 4344 
L 3253 4331 
L 3300 4331 
Q 3341 4331 3344 4381 
z
M 6122 3750 
L 6122 -247 
Q 6122 -372 6063 -472 
Q 6003 -575 5900 -636 
Q 5797 -697 5672 -697 
L 1672 -697 
Q 1553 -697 1447 -634 
Q 1344 -572 1283 -470 
Q 1222 -369 1222 -247 
L 1222 3750 
Q 1222 3872 1284 3978 
Q 1347 4078 1448 4139 
Q 1550 4200 1672 4200 
L 5672 4200 
Q 5800 4200 5900 4141 
Q 6000 4081 6061 3978 
Q 6122 3875 6122 3750 
z
M 3863 3350 
Q 3863 3544 3256 3778 
L 3225 3778 
Q 3206 3747 3206 3719 
Q 3272 3681 3516 3409 
Q 3734 3163 3778 3163 
Q 3797 3163 3819 3172 
Q 3863 3234 3863 3350 
z
M 5684 2994 
Q 5541 3288 5384 3288 
Q 5350 3288 5269 3222 
Q 5184 3147 5163 3138 
L 2244 3138 
L 2222 3372 
L 2191 3372 
Q 2141 3372 2134 3356 
Q 2134 2984 1863 2669 
Q 1769 2563 1769 2538 
Q 1769 2516 1881 2434 
Q 2228 2563 2247 3000 
L 2259 3016 
L 5225 3016 
L 5088 2784 
L 4972 2588 
Q 4972 2563 5016 2544 
Q 5266 2775 5425 2934 
Q 5438 2947 5478 2947 
Q 5581 2947 5684 2994 
z
M 6600 2819 
L 6600 2628 
Q 6600 2553 6540 2497 
Q 6481 2441 6406 2441 
L 6309 2441 
L 6309 2509 
Q 6472 2509 6472 2606 
L 6472 2619 
Q 6459 2600 6425 2600 
L 6372 2600 
Q 6253 2600 6253 2713 
L 6253 2819 
Q 6253 2931 6372 2931 
L 6481 2931 
Q 6600 2931 6600 2819 
z
M 1050 2597 
L 1050 2438 
L 928 2438 
L 928 2597 
L 719 2597 
L 719 2659 
L 931 2925 
L 1050 2925 
L 1050 2663 
L 1103 2663 
L 1103 2597 
L 1050 2597 
z
M 6472 2816 
L 6459 2850 
L 6425 2863 
L 6394 2850 
L 6378 2816 
L 6378 2716 
L 6394 2681 
L 6425 2669 
L 6459 2681 
L 6472 2716 
L 6472 2816 
z
M 928 2831 
L 797 2663 
L 928 2663 
L 928 2831 
z
M 5675 1234 
Q 5675 1272 5637 1326 
Q 5600 1381 5538 1438 
Q 5478 1494 5414 1536 
Q 5350 1578 5303 1591 
Q 5253 1538 5222 1497 
Q 5191 1456 5175 1431 
Q 5156 1400 5142 1378 
Q 5128 1356 5119 1341 
Q 5097 1313 5073 1306 
Q 5050 1300 4994 1300 
L 3816 1300 
L 3816 1609 
L 3819 1641 
Q 4013 1744 4013 1759 
L 3934 1859 
Q 4041 1903 4125 1942 
Q 4209 1981 4278 2013 
Q 4344 2044 4391 2066 
Q 4438 2088 4463 2103 
L 4703 2238 
Q 4788 2250 4856 2266 
Q 4891 2272 4917 2275 
Q 4944 2278 4966 2281 
L 4966 2306 
Q 4963 2322 4950 2340 
Q 4938 2359 4922 2384 
Q 4838 2488 4750 2572 
Q 4706 2606 4691 2606 
Q 4584 2606 4484 2475 
L 4322 2459 
L 2788 2459 
Q 2731 2459 2613 2478 
Q 2497 2497 2434 2497 
L 2363 2497 
Q 2416 2303 2478 2303 
L 2859 2344 
L 4456 2344 
L 3800 1888 
L 3566 1966 
Q 3566 1953 3567 1942 
Q 3569 1931 3572 1916 
Q 3575 1900 3576 1883 
Q 3578 1866 3581 1844 
Q 3588 1803 3592 1772 
Q 3597 1741 3597 1719 
L 3597 1300 
L 1875 1300 
Q 1859 1300 1806 1309 
Q 1778 1316 1740 1322 
Q 1703 1328 1659 1341 
L 1659 1306 
L 1731 1122 
Q 1822 1122 1984 1163 
Q 2150 1200 2234 1200 
Q 2581 1200 2922 1186 
Q 3263 1172 3597 1147 
L 3597 119 
L 3534 66 
L 2816 113 
L 2816 38 
Q 2975 -6 3072 -34 
Q 3169 -63 3228 -91 
Q 3288 -119 3330 -161 
Q 3372 -203 3419 -275 
Q 3875 -259 3875 306 
Q 3875 319 3875 331 
Q 3875 344 3875 356 
Q 3875 369 3875 381 
Q 3875 394 3872 406 
L 3825 1147 
L 5659 1147 
Q 5666 1175 5670 1197 
Q 5675 1219 5675 1234 
z
M 788 1822 
L 788 2306 
L 1050 2306 
L 1050 2238 
L 900 2238 
L 900 2097 
L 1000 2097 
L 1000 2031 
L 900 2031 
L 900 1891 
L 1050 1891 
L 1050 1822 
L 788 1822 
z
M 6406 2238 
L 6406 2097 
L 6506 2097 
L 6506 2031 
L 6406 2031 
L 6406 1822 
L 6294 1822 
L 6294 2306 
L 6556 2306 
L 6556 2238 
L 6406 2238 
z
M 6406 1628 
L 6406 1488 
L 6506 1488 
L 6506 1419 
L 6406 1419 
L 6406 1213 
L 6294 1213 
L 6294 1694 
L 6556 1694 
L 6556 1628 
L 6406 1628 
z
M 1091 1581 
L 1091 1316 
Q 1091 1203 978 1203 
L 856 1203 
Q 744 1203 744 1313 
L 744 1584 
Q 744 1694 856 1694 
L 978 1694 
Q 1091 1694 1091 1581 
z
M 966 1578 
L 950 1613 
L 919 1625 
L 884 1613 
L 872 1578 
L 872 1319 
L 884 1288 
L 919 1272 
L 950 1288 
L 966 1319 
L 966 1578 
z
M 6391 991 
L 6391 881 
L 6538 881 
L 6538 794 
L 6391 794 
L 6391 588 
L 6263 588 
L 6263 1078 
L 6581 1078 
L 6581 991 
L 6391 991 
z
M 1091 963 
L 1091 700 
Q 1091 588 978 588 
L 856 588 
Q 744 588 744 694 
L 744 969 
Q 744 1075 856 1075 
L 978 1075 
Q 1091 1075 1091 963 
z
M 966 963 
L 950 994 
L 919 1006 
L 884 994 
L 872 963 
L 872 703 
L 884 669 
L 919 656 
L 950 669 
L 966 703 
L 966 963 
z
M 1825 -1234 
L 1825 -763 
L 1931 -763 
L 1931 -1234 
L 1825 -1234 
z
M 3553 -881 
L 3488 -881 
Q 3484 -831 3444 -831 
L 3397 -831 
L 3366 -844 
L 3353 -875 
L 3353 -1125 
L 3366 -1156 
L 3397 -1169 
Q 3438 -1166 3438 -1125 
L 3438 -1031 
L 3388 -1031 
L 3388 -966 
L 3550 -966 
L 3550 -1125 
Q 3550 -1234 3444 -1234 
L 3344 -1234 
Q 3238 -1234 3238 -1125 
L 3238 -872 
Q 3238 -763 3344 -763 
L 3444 -763 
Q 3547 -763 3553 -881 
z
M 3844 -1234 
L 3844 -1078 
L 3831 -1044 
L 3800 -1031 
L 3759 -1031 
L 3759 -1234 
L 3644 -1234 
L 3644 -763 
L 3856 -763 
Q 3956 -763 3956 -900 
Q 3956 -969 3906 -991 
L 3941 -1006 
L 3956 -1047 
L 3956 -1234 
L 3844 -1234 
z
M 2475 -1234 
L 2475 -763 
L 2738 -763 
L 2738 -831 
L 2588 -831 
L 2588 -966 
L 2688 -966 
L 2688 -1031 
L 2588 -1031 
L 2588 -1169 
L 2738 -1169 
L 2738 -1234 
L 2475 -1234 
z
M 2375 -872 
L 2375 -1125 
Q 2375 -1234 2272 -1234 
L 2063 -1234 
L 2063 -763 
L 2272 -763 
Q 2375 -763 2375 -872 
z
M 4244 -1234 
L 4244 -1031 
L 4159 -1031 
L 4159 -1234 
L 4044 -1234 
L 4044 -869 
Q 4044 -763 4147 -763 
L 4256 -763 
Q 4356 -763 4356 -872 
L 4356 -1234 
L 4244 -1234 
z
M 4753 -872 
L 4753 -928 
Q 4753 -1031 4594 -1031 
L 4553 -1031 
L 4553 -1234 
L 4441 -1234 
L 4441 -763 
L 4650 -763 
Q 4753 -763 4753 -872 
z
M 5028 -1234 
L 5028 -1031 
L 4941 -1031 
L 4941 -1234 
L 4828 -1234 
L 4828 -763 
L 4941 -763 
L 4941 -966 
L 5028 -966 
L 5028 -763 
L 5141 -763 
L 5141 -1234 
L 5028 -1234 
z
M 5519 -1125 
Q 5519 -1234 5416 -1234 
L 5356 -1234 
Q 5256 -1234 5256 -1119 
L 5322 -1119 
L 5322 -1131 
L 5334 -1159 
L 5363 -1169 
L 5394 -1156 
L 5403 -1125 
Q 5403 -1116 5331 -1025 
Q 5256 -934 5256 -872 
Q 5256 -763 5356 -763 
L 5419 -763 
Q 5513 -763 5519 -881 
L 5456 -881 
Q 5450 -828 5416 -828 
Q 5403 -831 5395 -834 
Q 5388 -838 5381 -841 
Q 5378 -844 5378 -848 
Q 5378 -853 5375 -859 
Q 5372 -863 5372 -867 
Q 5372 -872 5369 -875 
Q 5369 -881 5444 -972 
Q 5519 -1059 5519 -1125 
z
M 3153 -872 
L 3153 -1125 
Q 3153 -1234 3053 -1234 
L 2944 -1234 
Q 2841 -1234 2841 -1131 
L 2841 -869 
Q 2841 -766 2944 -766 
L 3053 -766 
Q 3153 -766 3153 -872 
z
M 4638 -875 
L 4625 -844 
L 4594 -831 
L 4553 -831 
L 4553 -966 
L 4594 -966 
L 4625 -953 
L 4638 -922 
L 4638 -875 
z
M 4244 -875 
L 4231 -844 
L 4200 -831 
L 4172 -844 
L 4159 -875 
L 4159 -966 
L 4244 -966 
L 4244 -875 
z
M 3844 -875 
L 3831 -844 
L 3800 -831 
L 3759 -831 
L 3759 -966 
L 3800 -966 
L 3831 -953 
L 3844 -922 
L 3844 -875 
z
M 3041 -875 
L 3028 -844 
L 2997 -831 
L 2969 -844 
L 2956 -875 
L 2956 -1125 
L 2969 -1156 
L 2997 -1169 
L 3028 -1156 
L 3041 -1125 
L 3041 -875 
z
M 2259 -875 
L 2247 -844 
L 2216 -831 
L 2175 -831 
L 2175 -1169 
L 2216 -1169 
L 2247 -1156 
L 2259 -1125 
L 2259 -875 
z
" transform="scale(0.015625)"/>
       <path id="LastResortHE-Regular-a6" d="M 6734 -747 
L 6734 4250 
Q 6734 4409 6659 4534 
Q 6581 4663 6454 4738 
Q 6328 4813 6172 4813 
L 1175 4813 
Q 1022 4813 894 4738 
Q 766 4659 689 4532 
Q 613 4406 613 4250 
L 613 -747 
Q 613 -903 691 -1028 
Q 766 -1156 894 -1232 
Q 1022 -1309 1175 -1309 
L 6172 -1309 
Q 6331 -1309 6456 -1231 
Q 6584 -1156 6659 -1028 
Q 6734 -900 6734 -747 
z
M 5281 4266 
L 5281 4738 
L 5397 4738 
L 5397 4331 
L 5544 4331 
L 5544 4266 
L 5281 4266 
z
M 4956 4266 
L 4956 4738 
L 5069 4738 
L 5069 4331 
L 5216 4331 
L 5216 4266 
L 4956 4266 
z
M 4866 4375 
Q 4866 4266 4766 4266 
L 4656 4266 
Q 4553 4266 4553 4369 
L 4553 4738 
L 4669 4738 
L 4669 4375 
L 4681 4344 
L 4709 4331 
L 4741 4344 
L 4753 4375 
L 4753 4738 
L 4866 4738 
L 4866 4375 
z
M 4319 4669 
L 4319 4534 
L 4416 4534 
L 4416 4469 
L 4319 4469 
L 4319 4266 
L 4203 4266 
L 4203 4738 
L 4466 4738 
L 4466 4669 
L 4319 4669 
z
M 2000 4266 
L 2000 4469 
L 1916 4469 
L 1916 4266 
L 1800 4266 
L 1800 4738 
L 1916 4738 
L 1916 4534 
L 2000 4534 
L 2000 4738 
L 2113 4738 
L 2113 4266 
L 2000 4266 
z
M 3909 4522 
Q 3909 4422 3803 4422 
Q 3803 4266 3700 4266 
L 3594 4266 
Q 3491 4266 3491 4369 
L 3491 4422 
Q 3491 4528 3594 4528 
Q 3491 4538 3491 4631 
Q 3491 4738 3591 4738 
L 3706 4738 
Q 3803 4738 3803 4638 
L 3803 4578 
L 3700 4578 
L 3700 4631 
L 3684 4669 
L 3647 4684 
L 3609 4669 
L 3594 4631 
Q 3594 4559 3647 4553 
L 3647 4500 
Q 3594 4494 3594 4450 
L 3594 4369 
L 3609 4331 
L 3647 4319 
L 3684 4331 
Q 3703 4366 3703 4406 
L 3700 4475 
L 3803 4475 
L 3841 4491 
L 3856 4528 
L 3856 4578 
L 3909 4578 
L 3909 4522 
z
M 3031 4669 
L 3031 4534 
L 3128 4534 
L 3128 4469 
L 3031 4469 
L 3031 4266 
L 2919 4266 
L 2919 4738 
L 3178 4738 
L 3178 4669 
L 3031 4669 
z
M 2388 4266 
L 2388 4469 
L 2303 4469 
L 2303 4266 
L 2188 4266 
L 2188 4631 
Q 2188 4738 2291 4738 
L 2400 4738 
Q 2500 4738 2500 4628 
L 2500 4266 
L 2388 4266 
z
M 2584 4266 
L 2584 4738 
L 2697 4738 
L 2697 4331 
L 2844 4331 
L 2844 4266 
L 2584 4266 
z
M 2388 4625 
L 2375 4656 
L 2344 4669 
L 2316 4656 
L 2303 4625 
L 2303 4534 
L 2388 4534 
L 2388 4625 
z
M 6122 3750 
L 6122 -247 
Q 6122 -372 6063 -472 
Q 6003 -575 5900 -636 
Q 5797 -697 5672 -697 
L 1672 -697 
Q 1553 -697 1447 -634 
Q 1344 -572 1283 -470 
Q 1222 -369 1222 -247 
L 1222 3750 
Q 1222 3872 1284 3978 
Q 1347 4078 1448 4139 
Q 1550 4200 1672 4200 
L 5672 4200 
Q 5800 4200 5900 4141 
Q 6000 4081 6061 3978 
Q 6122 3875 6122 3750 
z
M 4500 2163 
L 4494 2553 
L 3781 2559 
L 3809 3569 
L 3559 3578 
L 3531 2559 
L 3019 2566 
L 3016 2316 
L 3522 2309 
Q 3506 1925 3472 1614 
Q 3438 1303 3366 1044 
Q 3294 784 3167 553 
Q 3041 322 2844 91 
L 3034 -75 
Q 3250 178 3386 426 
Q 3522 675 3600 953 
Q 3678 1231 3715 1562 
Q 3753 1894 3772 2309 
L 4250 2306 
L 4250 2188 
Q 4250 1731 4226 1301 
Q 4203 872 4159 466 
Q 4138 247 4066 247 
Q 4041 247 4006 272 
L 3850 78 
Q 3953 -6 4075 -6 
Q 4347 -6 4406 438 
Q 4500 1147 4500 2163 
z
M 6406 2847 
L 6406 2706 
L 6506 2706 
L 6506 2641 
L 6406 2641 
L 6406 2431 
L 6294 2431 
L 6294 2916 
L 6556 2916 
L 6556 2847 
L 6406 2847 
z
M 900 2847 
L 900 2706 
L 1000 2706 
L 1000 2641 
L 900 2641 
L 900 2431 
L 788 2431 
L 788 2916 
L 1050 2916 
L 1050 2847 
L 900 2847 
z
M 6406 2238 
L 6406 2097 
L 6506 2097 
L 6506 2031 
L 6406 2031 
L 6406 1822 
L 6294 1822 
L 6294 2306 
L 6556 2306 
L 6556 2238 
L 6406 2238 
z
M 900 2238 
L 900 2097 
L 1000 2097 
L 1000 2031 
L 900 2031 
L 900 1822 
L 788 1822 
L 788 2306 
L 1050 2306 
L 1050 2238 
L 900 2238 
z
M 1091 1581 
L 1091 1316 
Q 1091 1203 978 1203 
L 856 1203 
Q 744 1203 744 1313 
L 744 1584 
Q 744 1694 856 1694 
L 978 1694 
Q 1091 1694 1091 1581 
z
M 6294 1213 
L 6294 1694 
L 6556 1694 
L 6556 1628 
L 6409 1628 
L 6409 1488 
L 6506 1488 
L 6506 1419 
L 6409 1419 
L 6409 1278 
L 6556 1278 
L 6556 1213 
L 6294 1213 
z
M 966 1578 
L 950 1613 
L 919 1625 
L 884 1613 
L 872 1578 
L 872 1319 
L 884 1288 
L 919 1272 
L 950 1288 
L 966 1319 
L 966 1578 
z
M 6391 991 
L 6391 881 
L 6538 881 
L 6538 794 
L 6391 794 
L 6391 588 
L 6263 588 
L 6263 1078 
L 6581 1078 
L 6581 991 
L 6391 991 
z
M 1091 963 
L 1091 700 
Q 1091 588 978 588 
L 856 588 
Q 744 588 744 694 
L 744 969 
Q 744 1075 856 1075 
L 978 1075 
Q 1091 1075 1091 963 
z
M 966 963 
L 950 994 
L 919 1006 
L 884 994 
L 872 963 
L 872 703 
L 884 669 
L 919 656 
L 950 669 
L 966 703 
L 966 963 
z
M 4709 -1234 
L 4709 -1078 
L 4697 -1044 
L 4666 -1031 
L 4625 -1031 
L 4625 -1234 
L 4509 -1234 
L 4509 -763 
L 4722 -763 
Q 4825 -763 4825 -900 
Q 4825 -966 4772 -991 
L 4806 -1006 
L 4825 -1047 
L 4825 -1234 
L 4709 -1234 
z
M 3875 -831 
L 3875 -966 
L 3972 -966 
L 3972 -1031 
L 3875 -1031 
L 3875 -1234 
L 3759 -1234 
L 3759 -763 
L 4022 -763 
L 4022 -831 
L 3875 -831 
z
M 3334 -1234 
L 3334 -1031 
L 3247 -1031 
L 3247 -1234 
L 3134 -1234 
L 3134 -763 
L 3247 -763 
L 3247 -966 
L 3334 -966 
L 3334 -763 
L 3447 -763 
L 3447 -1234 
L 3334 -1234 
z
M 2947 -831 
L 2947 -1234 
L 2831 -1234 
L 2831 -831 
L 2731 -831 
L 2731 -763 
L 3044 -763 
L 3044 -831 
L 2947 -831 
z
M 2659 -872 
L 2659 -1125 
Q 2659 -1234 2556 -1234 
L 2344 -1234 
L 2344 -763 
L 2556 -763 
Q 2659 -763 2659 -872 
z
M 2109 -1234 
L 2109 -763 
L 2213 -763 
L 2213 -1234 
L 2109 -1234 
z
M 2016 -1053 
Q 2016 -1234 1834 -1234 
L 1697 -1234 
L 1697 -1222 
Q 1675 -1234 1648 -1236 
Q 1622 -1238 1597 -1238 
L 1494 -1234 
L 1494 -763 
L 1609 -763 
L 1609 -1169 
L 1650 -1169 
L 1684 -1156 
L 1697 -1125 
L 1697 -763 
L 1813 -763 
L 1813 -1169 
L 1853 -1169 
L 1884 -1156 
L 1900 -1125 
L 1900 -763 
L 2016 -763 
L 2016 -1053 
z
M 5353 -1234 
L 5353 -966 
L 5184 -1138 
L 5016 -966 
L 5016 -1234 
L 4950 -1234 
L 4950 -763 
L 4981 -763 
L 5197 -978 
L 5409 -763 
L 5472 -763 
L 5472 -1234 
L 5353 -1234 
z
M 5850 -1125 
Q 5850 -1234 5750 -1234 
L 5691 -1234 
Q 5591 -1234 5591 -1119 
L 5653 -1119 
L 5653 -1131 
L 5666 -1159 
L 5694 -1169 
L 5728 -1156 
L 5738 -1125 
Q 5738 -1113 5666 -1022 
Q 5591 -931 5591 -872 
Q 5591 -763 5691 -763 
L 5750 -763 
Q 5844 -763 5850 -881 
L 5788 -881 
Q 5781 -828 5747 -828 
Q 5738 -831 5728 -834 
Q 5719 -838 5713 -841 
L 5703 -875 
Q 5703 -881 5778 -972 
Q 5850 -1063 5850 -1125 
z
M 4413 -872 
L 4413 -1125 
Q 4413 -1234 4309 -1234 
L 4200 -1234 
Q 4097 -1234 4097 -1131 
L 4097 -869 
Q 4097 -766 4200 -766 
L 4309 -766 
Q 4413 -766 4413 -872 
z
M 4709 -875 
L 4697 -844 
L 4666 -831 
L 4625 -831 
L 4625 -966 
L 4666 -966 
L 4697 -953 
L 4709 -922 
L 4709 -875 
z
M 4297 -875 
L 4284 -844 
L 4253 -831 
L 4225 -844 
L 4213 -875 
L 4213 -1125 
L 4225 -1156 
L 4253 -1169 
L 4284 -1156 
L 4297 -1125 
L 4297 -875 
z
M 2544 -875 
L 2531 -844 
L 2500 -831 
L 2459 -831 
L 2459 -1169 
L 2500 -1169 
L 2531 -1156 
L 2544 -1125 
L 2544 -875 
z
" transform="scale(0.015625)"/>
       <path id="DejaVuSans-3" transform="scale(0.015625)"/>
       <path id="DejaVuSans-10" d="M 313 2009 
L 1997 2009 
L 1997 1497 
L 313 1497 
L 313 2009 
z
" transform="scale(0.015625)"/>
       <path id="DejaVuSans-24" d="M 2188 4044 
L 1331 1722 
L 3047 1722 
L 2188 4044 
z
M 1831 4666 
L 2547 4666 
L 4325 0 
L 3669 0 
L 3244 1197 
L 1141 1197 
L 716 0 
L 50 0 
L 1831 4666 
z
" transform="scale(0.015625)"/>
       <path id="DejaVuSans-4f" d="M 603 4863 
L 1178 4863 
L 1178 0 
L 603 0 
L 603 4863 
z
" transform="scale(0.015625)"/>
      </defs>
      <use xlink:href="#LastResortHE-Regular-7a"/>
      <use xlink:href="#LastResortHE-Regular-7a" transform="translate(114.75 0)"/>
      <use xlink:href="#LastResortHE-Regular-7a" transform="translate(229.5 0)"/>
      <use xlink:href="#LastResortHE-Regular-7a" transform="translate(344.25 0)"/>
      <use xlink:href="#LastResortHE-Regular-a6" transform="translate(459 0)"/>
      <use xlink:href="#LastResortHE-Regular-7a" transform="translate(573.75 0)"/>
      <use xlink:href="#LastResortHE-Regular-7a" transform="translate(688.5 0)"/>
      <use xlink:href="#LastResortHE-Regular-7a" transform="translate(803.25 0)"/>
      <use xlink:href="#LastResortHE-Regular-7a" transform="translate(918 0)"/>
      <use xlink:href="#DejaVuSans-3" transform="translate(1032.75 0)"/>
      <use xlink:href="#DejaVuSans-10" transform="translate(1064.53125 0)"/>
      <use xlink:href="#DejaVuSans-3" transform="translate(1100.609375 0)"/>
      <use xlink:href="#DejaVuSans-24" transform="translate(1132.390625 0)"/>
      <use xlink:href="#DejaVuSans-4f" transform="translate(1200.796875 0)"/>
      <use xlink:href="#DejaVuSans-4f" transform="translate(1228.578125 0)"/>
      <use xlink:href="#LastResortHE-Regular-a6" transform="translate(1256.359375 0)"/>
     </g>
    </g>
   </g>
   <g id="matplotlib.axis_2">
    <g id="ytick_1">
     <g id="line2d_9">
      <defs>
       <path id="m471fae4ce0" d="M 0 0 
L -3.5 0 
" style="stroke: #000000; stroke-width: 0.8"/>
      </defs>
      <g>
       <use xlink:href="#m471fae4ce0" x="48.625" y="50.124696" style="stroke: #000000; stroke-width: 0.8"/>
      </g>
     </g>
     <g id="text_10">
      <!-- 顔 -->
      <g transform="translate(30.15 53.923524) scale(0.1 -0.1)">
       <use xlink:href="#LastResortHE-Regular-7a"/>
      </g>
     </g>
    </g>
    <g id="ytick_2">
     <g id="line2d_10">
      <g>
       <use xlink:href="#m471fae4ce0" x="48.625" y="70.130098" style="stroke: #000000; stroke-width: 0.8"/>
      </g>
     </g>
     <g id="text_11">
      <!-- 床 -->
      <g transform="translate(30.15 73.928926) scale(0.1 -0.1)">
       <use xlink:href="#LastResortHE-Regular-7a"/>
      </g>
     </g>
    </g>
    <g id="ytick_3">
     <g id="line2d_11">
      <g>
       <use xlink:href="#m471fae4ce0" x="48.625" y="90.1355" style="stroke: #000000; stroke-width: 0.8"/>
      </g>
     </g>
     <g id="text_12">
      <!-- 当たる -->
      <g transform="translate(7.2 93.934329) scale(0.1 -0.1)">
       <defs>
        <path id="LastResortHE-Regular-6e" d="M 6734 -747 
L 6734 4250 
Q 6734 4409 6659 4534 
Q 6581 4663 6454 4738 
Q 6328 4813 6172 4813 
L 1175 4813 
Q 1019 4813 891 4738 
Q 763 4663 688 4534 
Q 613 4406 613 4250 
L 613 -747 
Q 613 -903 688 -1031 
Q 763 -1159 891 -1234 
Q 1019 -1309 1175 -1309 
L 6172 -1309 
Q 6331 -1309 6456 -1231 
Q 6584 -1156 6659 -1028 
Q 6734 -900 6734 -747 
z
M 5069 4266 
L 5069 4469 
L 4981 4469 
L 4981 4266 
L 4869 4266 
L 4869 4631 
Q 4869 4738 4969 4738 
L 5081 4738 
Q 5181 4738 5181 4628 
L 5181 4266 
L 5069 4266 
z
M 4759 4266 
L 4494 4509 
L 4494 4266 
L 4428 4266 
L 4428 4738 
L 4459 4738 
L 4728 4494 
L 4728 4738 
L 4794 4738 
L 4794 4266 
L 4759 4266 
z
M 4213 4266 
L 4213 4469 
L 4128 4469 
L 4128 4266 
L 4016 4266 
L 4016 4631 
Q 4016 4738 4116 4738 
L 4225 4738 
Q 4328 4738 4328 4628 
L 4328 4266 
L 4213 4266 
z
M 3938 4375 
Q 3938 4266 3831 4266 
L 3731 4266 
Q 3625 4266 3625 4375 
L 3625 4628 
Q 3625 4738 3731 4738 
L 3831 4738 
Q 3931 4738 3938 4619 
L 3875 4619 
Q 3872 4669 3831 4669 
L 3781 4669 
L 3753 4656 
L 3738 4625 
L 3738 4375 
L 3753 4344 
L 3781 4331 
Q 3825 4338 3825 4375 
L 3825 4469 
L 3775 4469 
L 3775 4534 
L 3938 4534 
L 3938 4375 
z
M 3422 4266 
L 3422 4469 
L 3338 4469 
L 3338 4266 
L 3222 4266 
L 3222 4631 
Q 3222 4738 3325 4738 
L 3434 4738 
Q 3538 4738 3538 4628 
L 3538 4266 
L 3422 4266 
z
M 2363 4266 
L 2363 4469 
L 2275 4469 
L 2275 4266 
L 2163 4266 
L 2163 4738 
L 2275 4738 
L 2275 4534 
L 2363 4534 
L 2363 4738 
L 2475 4738 
L 2475 4266 
L 2363 4266 
z
M 2594 4266 
L 2594 4738 
L 2697 4738 
L 2697 4266 
L 2594 4266 
z
M 3009 4266 
L 3009 4422 
L 2994 4456 
L 2966 4469 
L 2922 4469 
L 2922 4266 
L 2809 4266 
L 2809 4738 
L 3022 4738 
Q 3122 4738 3122 4600 
Q 3122 4531 3072 4509 
L 3106 4494 
L 3122 4453 
L 3122 4266 
L 3009 4266 
z
M 5069 4625 
L 5053 4656 
L 5025 4669 
L 4997 4656 
L 4981 4625 
L 4981 4534 
L 5069 4534 
L 5069 4625 
z
M 4213 4625 
L 4200 4656 
L 4172 4669 
L 4141 4656 
L 4128 4625 
L 4128 4534 
L 4213 4534 
L 4213 4625 
z
M 3422 4625 
L 3409 4656 
L 3378 4669 
L 3350 4656 
L 3338 4625 
L 3338 4534 
L 3422 4534 
L 3422 4625 
z
M 3009 4625 
L 2994 4656 
L 2966 4669 
L 2922 4669 
L 2922 4534 
L 2966 4534 
L 2994 4547 
L 3009 4578 
L 3009 4625 
z
M 6122 3750 
L 6122 -247 
Q 6122 -372 6063 -472 
Q 6003 -575 5900 -636 
Q 5797 -697 5672 -697 
L 1672 -697 
Q 1553 -697 1447 -634 
Q 1344 -572 1283 -470 
Q 1222 -369 1222 -247 
L 1222 3750 
Q 1222 3872 1284 3978 
Q 1347 4078 1448 4139 
Q 1550 4200 1672 4200 
L 5672 4200 
Q 5800 4200 5900 4141 
Q 6000 4081 6061 3978 
Q 6122 3875 6122 3750 
z
M 4281 1881 
Q 4281 2606 3778 2606 
Q 3728 2606 3650 2592 
Q 3572 2578 3469 2553 
Q 3259 2503 3159 2497 
Q 3159 2622 3319 2925 
Q 3475 3231 3475 3263 
Q 3475 3319 3419 3381 
Q 3363 3444 3278 3494 
Q 3191 3547 3102 3578 
Q 3013 3609 2947 3609 
Q 2809 3609 2775 3506 
Q 2831 3478 2873 3456 
Q 2916 3434 2944 3419 
Q 2997 3388 3015 3344 
Q 3034 3300 3034 3213 
Q 3034 3144 3014 3030 
Q 2994 2916 2959 2791 
Q 2925 2666 2887 2564 
Q 2850 2463 2813 2419 
Q 2241 2241 2047 2241 
Q 1900 2241 1831 2291 
Q 1791 2316 1761 2337 
Q 1731 2359 1709 2372 
Q 1688 2384 1675 2390 
Q 1663 2397 1659 2400 
Q 1619 2369 1619 2316 
Q 1619 2250 1669 2176 
Q 1719 2103 1794 2038 
Q 1869 1969 1951 1925 
Q 2034 1881 2100 1881 
Q 2100 1894 2272 1988 
Q 2281 1994 2300 2001 
Q 2319 2009 2350 2022 
Q 2409 2047 2479 2070 
Q 2550 2094 2606 2113 
Q 2663 2131 2678 2131 
Q 2709 2131 2713 2109 
Q 2634 1900 2540 1670 
Q 2447 1441 2328 1213 
Q 2213 984 2073 779 
Q 1934 575 1772 413 
Q 1681 303 1681 175 
Q 1681 34 1825 34 
Q 1972 34 2116 234 
Q 2263 434 2428 795 
Q 2594 1156 2788 1644 
Q 3022 2231 3069 2263 
Q 3106 2288 3184 2316 
Q 3263 2344 3356 2366 
Q 3447 2391 3531 2405 
Q 3616 2419 3663 2419 
Q 4013 2419 4013 1966 
Q 4013 1847 3986 1686 
Q 3959 1525 3913 1350 
Q 3866 1172 3800 1001 
Q 3734 831 3653 694 
Q 3572 556 3483 475 
Q 3394 394 3297 394 
Q 3181 394 2759 572 
Q 2738 572 2731 563 
L 2731 531 
L 2934 313 
Q 3000 241 3045 183 
Q 3091 125 3113 81 
L 3138 -44 
Q 3163 -109 3228 -109 
Q 3478 -109 3753 278 
Q 4281 1013 4281 1881 
z
M 1075 2647 
L 1075 2538 
Q 1075 2431 972 2431 
L 863 2431 
Q 775 2431 759 2550 
L 825 2550 
Q 828 2500 869 2500 
L 916 2500 
L 947 2513 
L 959 2544 
L 959 2647 
Q 959 2681 936 2687 
Q 913 2694 888 2694 
L 809 2691 
L 809 2756 
L 944 2847 
L 759 2847 
L 759 2916 
L 1075 2916 
L 1075 2850 
L 941 2759 
Q 1075 2756 1075 2647 
z
M 6584 2647 
L 6584 2538 
Q 6584 2431 6481 2431 
L 6372 2431 
Q 6284 2431 6269 2550 
L 6334 2550 
Q 6338 2500 6378 2500 
L 6425 2500 
L 6456 2513 
L 6469 2544 
L 6469 2647 
Q 6469 2681 6445 2687 
Q 6422 2694 6397 2694 
L 6319 2691 
L 6319 2756 
L 6453 2847 
L 6269 2847 
L 6269 2916 
L 6584 2916 
L 6584 2850 
L 6450 2759 
Q 6584 2756 6584 2647 
z
M 5725 1600 
Q 5725 1759 5638 1925 
Q 5550 2091 5408 2247 
Q 5266 2403 5100 2519 
Q 4988 2597 4861 2653 
Q 4734 2709 4632 2739 
Q 4531 2769 4488 2769 
Q 4469 2769 4444 2759 
L 4472 2709 
Q 4678 2578 4844 2434 
Q 4950 2341 5053 2220 
Q 5156 2100 5225 1992 
Q 5294 1884 5294 1819 
Q 5294 1728 5000 1659 
Q 4688 1584 4675 1563 
Q 4769 1522 5031 1488 
Q 5272 1456 5331 1422 
Q 5500 1272 5531 1272 
Q 5594 1272 5634 1328 
Q 5678 1381 5701 1459 
Q 5725 1538 5725 1600 
z
M 1091 2200 
L 1091 1938 
Q 1091 1825 978 1825 
L 856 1825 
Q 744 1825 744 1931 
L 744 2206 
Q 744 2313 856 2313 
L 978 2313 
Q 1091 2313 1091 2200 
z
M 6600 2200 
L 6600 1938 
Q 6600 1825 6488 1825 
L 6366 1825 
Q 6253 1825 6253 1931 
L 6253 2206 
Q 6253 2313 6366 2313 
L 6488 2313 
Q 6600 2313 6600 2200 
z
M 966 2200 
L 950 2231 
L 919 2244 
L 884 2231 
L 872 2200 
L 872 1938 
L 884 1906 
L 919 1894 
L 950 1906 
L 966 1938 
L 966 2200 
z
M 6472 2200 
L 6459 2231 
L 6425 2244 
L 6394 2231 
L 6378 2200 
L 6378 1938 
L 6394 1906 
L 6425 1894 
L 6459 1906 
L 6472 1938 
L 6472 2200 
z
M 6600 1581 
L 6600 1391 
Q 6600 1316 6540 1261 
Q 6481 1206 6406 1206 
L 6309 1206 
L 6309 1275 
Q 6363 1275 6417 1289 
Q 6472 1303 6472 1372 
L 6472 1384 
Q 6459 1363 6425 1363 
L 6372 1363 
Q 6253 1363 6253 1475 
L 6253 1581 
Q 6253 1694 6372 1694 
L 6481 1694 
Q 6600 1694 6600 1581 
z
M 1050 1363 
L 1050 1206 
L 928 1206 
L 928 1363 
L 719 1363 
L 719 1425 
L 931 1694 
L 1050 1694 
L 1050 1431 
L 1103 1431 
L 1103 1363 
L 1050 1363 
z
M 6472 1581 
L 6459 1613 
L 6425 1625 
L 6394 1613 
L 6378 1581 
L 6378 1478 
L 6394 1447 
L 6425 1431 
L 6459 1447 
L 6472 1478 
L 6472 1581 
z
M 928 1597 
L 797 1431 
L 928 1431 
L 928 1597 
z
M 6391 991 
L 6391 881 
L 6538 881 
L 6538 794 
L 6391 794 
L 6391 588 
L 6263 588 
L 6263 1078 
L 6581 1078 
L 6581 991 
L 6391 991 
z
M 1091 963 
L 1091 700 
Q 1091 588 978 588 
L 856 588 
Q 744 588 744 694 
L 744 969 
Q 744 1075 856 1075 
L 978 1075 
Q 1091 1075 1091 963 
z
M 966 963 
L 950 994 
L 919 1006 
L 884 994 
L 872 963 
L 872 703 
L 884 669 
L 919 656 
L 950 669 
L 966 703 
L 966 963 
z
M 2363 -1234 
L 2363 -1031 
L 2275 -1031 
L 2275 -1234 
L 2163 -1234 
L 2163 -763 
L 2275 -763 
L 2275 -966 
L 2363 -966 
L 2363 -763 
L 2475 -763 
L 2475 -1234 
L 2363 -1234 
z
M 3009 -1234 
L 3009 -1078 
L 2994 -1044 
L 2966 -1031 
L 2922 -1031 
L 2922 -1234 
L 2809 -1234 
L 2809 -763 
L 3022 -763 
Q 3122 -763 3122 -900 
Q 3122 -969 3072 -991 
L 3106 -1006 
L 3122 -1047 
L 3122 -1234 
L 3009 -1234 
z
M 3422 -1234 
L 3422 -1031 
L 3338 -1031 
L 3338 -1234 
L 3222 -1234 
L 3222 -869 
Q 3222 -763 3325 -763 
L 3434 -763 
Q 3538 -763 3538 -872 
L 3538 -1234 
L 3422 -1234 
z
M 3938 -1125 
Q 3938 -1234 3831 -1234 
L 3731 -1234 
Q 3625 -1234 3625 -1125 
L 3625 -872 
Q 3625 -763 3731 -763 
L 3831 -763 
Q 3931 -763 3938 -881 
L 3875 -881 
Q 3872 -831 3831 -831 
L 3781 -831 
L 3753 -844 
L 3738 -875 
L 3738 -1125 
L 3753 -1156 
L 3781 -1169 
Q 3825 -1163 3825 -1125 
L 3825 -1031 
L 3775 -1031 
L 3775 -966 
L 3938 -966 
L 3938 -1125 
z
M 2594 -1234 
L 2594 -763 
L 2697 -763 
L 2697 -1234 
L 2594 -1234 
z
M 4759 -1234 
L 4494 -991 
L 4494 -1234 
L 4428 -1234 
L 4428 -763 
L 4459 -763 
L 4728 -1006 
L 4728 -763 
L 4794 -763 
L 4794 -1234 
L 4759 -1234 
z
M 5069 -1234 
L 5069 -1031 
L 4981 -1031 
L 4981 -1234 
L 4869 -1234 
L 4869 -869 
Q 4869 -763 4969 -763 
L 5081 -763 
Q 5181 -763 5181 -872 
L 5181 -1234 
L 5069 -1234 
z
M 4213 -1234 
L 4213 -1031 
L 4128 -1031 
L 4128 -1234 
L 4016 -1234 
L 4016 -869 
Q 4016 -763 4116 -763 
L 4225 -763 
Q 4328 -763 4328 -872 
L 4328 -1234 
L 4213 -1234 
z
M 5069 -875 
L 5053 -844 
L 5025 -831 
L 4997 -844 
L 4981 -875 
L 4981 -966 
L 5069 -966 
L 5069 -875 
z
M 4213 -875 
L 4200 -844 
L 4172 -831 
L 4141 -844 
L 4128 -875 
L 4128 -966 
L 4213 -966 
L 4213 -875 
z
M 3422 -875 
L 3409 -844 
L 3378 -831 
L 3350 -844 
L 3338 -875 
L 3338 -966 
L 3422 -966 
L 3422 -875 
z
M 3009 -875 
L 2994 -844 
L 2966 -831 
L 2922 -831 
L 2922 -966 
L 2966 -966 
L 2994 -953 
L 3009 -922 
L 3009 -875 
z
M 2100 1881 
L 2103 1881 
L 2100 1881 
z
" transform="scale(0.015625)"/>
       </defs>
       <use xlink:href="#LastResortHE-Regular-7a"/>
       <use xlink:href="#LastResortHE-Regular-6e" transform="translate(114.75 0)"/>
       <use xlink:href="#LastResortHE-Regular-6e" transform="translate(229.5 0)"/>
      </g>
     </g>
    </g>
    <g id="ytick_4">
     <g id="line2d_12">
      <g>
       <use xlink:href="#m471fae4ce0" x="48.625" y="110.140902" style="stroke: #000000; stroke-width: 0.8"/>
      </g>
     </g>
     <g id="text_13">
      <!-- ボール -->
      <g transform="translate(7.2 113.939731) scale(0.1 -0.1)">
       <defs>
        <path id="LastResortHE-Regular-6f" d="M 6734 -747 
L 6734 4250 
Q 6734 4409 6659 4534 
Q 6581 4663 6454 4738 
Q 6328 4813 6172 4813 
L 1175 4813 
Q 1022 4813 894 4738 
Q 766 4659 689 4532 
Q 613 4406 613 4250 
L 613 -747 
Q 613 -903 691 -1028 
Q 766 -1156 894 -1232 
Q 1022 -1309 1175 -1309 
L 6172 -1309 
Q 6331 -1309 6456 -1231 
Q 6584 -1156 6659 -1028 
Q 6734 -900 6734 -747 
z
M 5156 4266 
L 5156 4469 
L 5072 4469 
L 5072 4266 
L 4959 4266 
L 4959 4631 
Q 4959 4738 5059 4738 
L 5169 4738 
Q 5272 4738 5272 4628 
L 5272 4266 
L 5156 4266 
z
M 3113 4669 
L 3113 4266 
L 2997 4266 
L 2997 4669 
L 2897 4669 
L 2897 4738 
L 3209 4738 
L 3209 4669 
L 3113 4669 
z
M 3481 4266 
L 3481 4469 
L 3394 4469 
L 3394 4266 
L 3281 4266 
L 3281 4631 
Q 3281 4738 3381 4738 
L 3494 4738 
Q 3594 4738 3594 4628 
L 3594 4266 
L 3481 4266 
z
M 4303 4266 
L 4303 4469 
L 4219 4469 
L 4219 4266 
L 4103 4266 
L 4103 4631 
Q 4103 4738 4206 4738 
L 4316 4738 
Q 4419 4738 4419 4628 
L 4419 4266 
L 4303 4266 
z
M 2325 4263 
L 2188 4428 
L 2188 4263 
L 2072 4263 
L 2072 4734 
L 2188 4734 
L 2188 4563 
L 2338 4734 
L 2447 4734 
L 2241 4500 
L 2447 4263 
L 2325 4263 
z
M 4850 4263 
L 4584 4506 
L 4584 4263 
L 4519 4263 
L 4519 4734 
L 4550 4734 
L 4819 4491 
L 4819 4734 
L 4884 4734 
L 4884 4263 
L 4850 4263 
z
M 3925 4263 
L 3788 4428 
L 3788 4263 
L 3672 4263 
L 3672 4734 
L 3788 4734 
L 3788 4563 
L 3938 4734 
L 4047 4734 
L 3841 4500 
L 4047 4263 
L 3925 4263 
z
M 2697 4263 
L 2697 4466 
L 2613 4466 
L 2613 4263 
L 2500 4263 
L 2500 4631 
Q 2500 4734 2600 4734 
L 2709 4734 
Q 2813 4734 2813 4625 
L 2813 4263 
L 2697 4263 
z
M 5156 4625 
L 5144 4656 
L 5116 4669 
L 5084 4656 
L 5072 4625 
L 5072 4534 
L 5156 4534 
L 5156 4625 
z
M 4303 4625 
L 4291 4656 
L 4263 4669 
L 4231 4656 
L 4219 4625 
L 4219 4534 
L 4303 4534 
L 4303 4625 
z
M 3481 4625 
L 3466 4656 
L 3438 4669 
L 3409 4656 
L 3394 4625 
L 3394 4534 
L 3481 4534 
L 3481 4625 
z
M 2697 4625 
L 2684 4656 
L 2656 4669 
L 2625 4656 
L 2613 4625 
L 2613 4531 
L 2697 4531 
L 2697 4625 
z
M 6122 3750 
L 6122 -247 
Q 6122 -372 6063 -472 
Q 6003 -575 5900 -636 
Q 5797 -697 5672 -697 
L 1672 -697 
Q 1553 -697 1447 -634 
Q 1344 -572 1283 -470 
Q 1222 -369 1222 -247 
L 1222 3750 
Q 1222 3872 1284 3978 
Q 1347 4078 1448 4139 
Q 1550 4200 1672 4200 
L 5672 4200 
Q 5800 4200 5900 4141 
Q 6000 4081 6061 3978 
Q 6122 3875 6122 3750 
z
M 5453 2338 
Q 5453 2394 5414 2466 
Q 5375 2538 5316 2606 
Q 5256 2675 5190 2720 
Q 5125 2766 5072 2766 
Q 5044 2766 4903 2722 
Q 4834 2700 4784 2689 
Q 4734 2678 4700 2678 
Q 4591 2678 4378 2659 
Q 4163 2641 4053 2641 
Q 3991 2641 3991 2678 
Q 3991 2763 4169 3028 
Q 4347 3297 4347 3381 
Q 4347 3428 4280 3486 
Q 4213 3544 4116 3597 
Q 4019 3650 3926 3684 
Q 3834 3719 3781 3719 
Q 3709 3719 3678 3678 
L 3678 3644 
L 3825 3550 
Q 3916 3488 3916 3413 
Q 3916 3375 3891 3284 
Q 3866 3194 3825 3081 
Q 3784 2969 3737 2862 
Q 3691 2756 3650 2684 
Q 3606 2613 3584 2603 
Q 3400 2534 2759 2534 
Q 2734 2534 2675 2557 
Q 2616 2581 2544 2613 
Q 2472 2647 2414 2678 
Q 2356 2709 2338 2728 
Q 2334 2716 2332 2702 
Q 2331 2688 2331 2672 
Q 2331 2606 2373 2520 
Q 2416 2434 2481 2353 
Q 2544 2272 2617 2217 
Q 2691 2163 2750 2163 
Q 2872 2163 3078 2241 
Q 3291 2316 3403 2316 
Q 3438 2316 3456 2291 
Q 3113 1391 1891 188 
L 1934 175 
Q 2122 241 2322 394 
Q 2522 544 2723 751 
Q 2925 959 3113 1203 
Q 3300 1444 3461 1697 
Q 3622 1950 3741 2184 
Q 3819 2334 3844 2350 
Q 4000 2441 4844 2441 
Q 4950 2441 4994 2406 
Q 4988 2219 4947 2019 
Q 4900 1813 4820 1570 
Q 4741 1328 4628 1022 
Q 4591 916 4533 791 
Q 4475 666 4403 556 
Q 4334 444 4264 372 
Q 4194 300 4131 300 
Q 3991 300 3566 594 
L 3534 594 
Q 3563 494 3769 259 
Q 3956 50 3956 -34 
Q 3956 -141 3964 -178 
Q 3972 -216 4053 -216 
Q 4169 -216 4283 -116 
Q 4397 -16 4509 156 
Q 4619 328 4722 548 
Q 4825 769 4916 1016 
Q 5006 1259 5081 1503 
Q 5156 1747 5209 1966 
Q 5228 2047 5344 2172 
Q 5453 2300 5453 2338 
z
M 1075 2647 
L 1075 2538 
Q 1075 2431 972 2431 
L 863 2431 
Q 775 2431 759 2550 
L 825 2550 
Q 828 2500 869 2500 
L 916 2500 
L 947 2513 
L 959 2544 
L 959 2647 
Q 959 2681 936 2687 
Q 913 2694 888 2694 
L 809 2691 
L 809 2756 
L 944 2847 
L 759 2847 
L 759 2916 
L 1075 2916 
L 1075 2850 
L 941 2759 
Q 1075 2756 1075 2647 
z
M 6584 2647 
L 6584 2538 
Q 6584 2431 6481 2431 
L 6372 2431 
Q 6284 2431 6269 2550 
L 6334 2550 
Q 6338 2500 6378 2500 
L 6425 2500 
L 6456 2513 
L 6469 2544 
L 6469 2647 
Q 6469 2681 6445 2687 
Q 6422 2694 6397 2694 
L 6319 2691 
L 6319 2756 
L 6453 2847 
L 6269 2847 
L 6269 2916 
L 6584 2916 
L 6584 2850 
L 6450 2759 
Q 6584 2756 6584 2647 
z
M 1091 2200 
L 1091 1938 
Q 1091 1825 978 1825 
L 856 1825 
Q 744 1825 744 1931 
L 744 2206 
Q 744 2313 856 2313 
L 978 2313 
Q 1091 2313 1091 2200 
z
M 6600 2200 
L 6600 1938 
Q 6600 1825 6488 1825 
L 6366 1825 
Q 6253 1825 6253 1931 
L 6253 2206 
Q 6253 2313 6366 2313 
L 6488 2313 
Q 6600 2313 6600 2200 
z
M 966 2200 
L 950 2231 
L 919 2244 
L 884 2231 
L 872 2200 
L 872 1938 
L 884 1906 
L 919 1894 
L 950 1906 
L 966 1938 
L 966 2200 
z
M 6472 2200 
L 6459 2231 
L 6425 2244 
L 6394 2231 
L 6378 2200 
L 6378 1938 
L 6394 1906 
L 6425 1894 
L 6459 1906 
L 6472 1938 
L 6472 2200 
z
M 6406 1628 
L 6406 1488 
L 6506 1488 
L 6506 1419 
L 6406 1419 
L 6406 1213 
L 6294 1213 
L 6294 1694 
L 6556 1694 
L 6556 1628 
L 6406 1628 
z
M 966 1203 
L 966 1416 
L 872 1416 
L 872 1203 
L 747 1203 
L 747 1584 
Q 747 1694 859 1694 
L 978 1694 
Q 1091 1694 1091 1581 
L 1091 1203 
L 966 1203 
z
M 966 1578 
L 950 1613 
L 919 1625 
L 888 1613 
L 872 1578 
L 872 1484 
L 966 1484 
L 966 1578 
z
M 6391 991 
L 6391 881 
L 6538 881 
L 6538 794 
L 6391 794 
L 6391 588 
L 6263 588 
L 6263 1078 
L 6581 1078 
L 6581 991 
L 6391 991 
z
M 1091 963 
L 1091 700 
Q 1091 588 978 588 
L 856 588 
Q 744 588 744 694 
L 744 969 
Q 744 1075 856 1075 
L 978 1075 
Q 1091 1075 1091 963 
z
M 966 963 
L 950 994 
L 919 1006 
L 884 994 
L 872 963 
L 872 703 
L 884 669 
L 919 656 
L 950 669 
L 966 703 
L 966 963 
z
M 3113 -831 
L 3113 -1234 
L 2997 -1234 
L 2997 -831 
L 2897 -831 
L 2897 -763 
L 3209 -763 
L 3209 -831 
L 3113 -831 
z
M 3481 -1234 
L 3481 -1031 
L 3394 -1031 
L 3394 -1234 
L 3281 -1234 
L 3281 -869 
Q 3281 -763 3381 -763 
L 3494 -763 
Q 3594 -763 3594 -872 
L 3594 -1234 
L 3481 -1234 
z
M 4850 -1234 
L 4584 -991 
L 4584 -1234 
L 4519 -1234 
L 4519 -763 
L 4550 -763 
L 4819 -1006 
L 4819 -763 
L 4884 -763 
L 4884 -1234 
L 4850 -1234 
z
M 5156 -1234 
L 5156 -1031 
L 5072 -1031 
L 5072 -1234 
L 4959 -1234 
L 4959 -869 
Q 4959 -763 5059 -763 
L 5169 -763 
Q 5272 -763 5272 -872 
L 5272 -1234 
L 5156 -1234 
z
M 4303 -1234 
L 4303 -1031 
L 4219 -1031 
L 4219 -1234 
L 4103 -1234 
L 4103 -869 
Q 4103 -763 4206 -763 
L 4316 -763 
Q 4419 -763 4419 -872 
L 4419 -1234 
L 4303 -1234 
z
M 2697 -1238 
L 2697 -1034 
L 2613 -1034 
L 2613 -1238 
L 2500 -1238 
L 2500 -869 
Q 2500 -766 2600 -766 
L 2709 -766 
Q 2813 -766 2813 -875 
L 2813 -1238 
L 2697 -1238 
z
M 2325 -1238 
L 2188 -1072 
L 2188 -1238 
L 2072 -1238 
L 2072 -766 
L 2188 -766 
L 2188 -938 
L 2338 -766 
L 2447 -766 
L 2241 -1000 
L 2447 -1238 
L 2325 -1238 
z
M 3925 -1238 
L 3788 -1072 
L 3788 -1238 
L 3672 -1238 
L 3672 -766 
L 3788 -766 
L 3788 -938 
L 3938 -766 
L 4047 -766 
L 3841 -1000 
L 4047 -1238 
L 3925 -1238 
z
M 5156 -875 
L 5144 -844 
L 5116 -831 
L 5084 -844 
L 5072 -875 
L 5072 -966 
L 5156 -966 
L 5156 -875 
z
M 4303 -875 
L 4291 -844 
L 4263 -831 
L 4231 -844 
L 4219 -875 
L 4219 -966 
L 4303 -966 
L 4303 -875 
z
M 3481 -875 
L 3466 -844 
L 3438 -831 
L 3409 -844 
L 3394 -875 
L 3394 -966 
L 3481 -966 
L 3481 -875 
z
M 2697 -875 
L 2684 -844 
L 2656 -831 
L 2625 -844 
L 2613 -875 
L 2613 -969 
L 2697 -969 
L 2697 -875 
z
M 2331 2741 
Q 2331 2741 2332 2737 
Q 2334 2734 2338 2728 
Q 2338 2741 2341 2744 
L 2363 2753 
Q 2331 2753 2331 2741 
z
" transform="scale(0.015625)"/>
       </defs>
       <use xlink:href="#LastResortHE-Regular-6f"/>
       <use xlink:href="#LastResortHE-Regular-6f" transform="translate(114.75 0)"/>
       <use xlink:href="#LastResortHE-Regular-6f" transform="translate(229.5 0)"/>
      </g>
     </g>
    </g>
    <g id="ytick_5">
     <g id="line2d_13">
      <g>
       <use xlink:href="#m471fae4ce0" x="48.625" y="130.146304" style="stroke: #000000; stroke-width: 0.8"/>
      </g>
     </g>
     <g id="text_14">
      <!-- 折れる -->
      <g transform="translate(7.2 133.945133) scale(0.1 -0.1)">
       <use xlink:href="#LastResortHE-Regular-7a"/>
       <use xlink:href="#LastResortHE-Regular-6e" transform="translate(114.75 0)"/>
       <use xlink:href="#LastResortHE-Regular-6e" transform="translate(229.5 0)"/>
      </g>
     </g>
    </g>
    <g id="ytick_6">
     <g id="line2d_14">
      <g>
       <use xlink:href="#m471fae4ce0" x="48.625" y="150.151706" style="stroke: #000000; stroke-width: 0.8"/>
      </g>
     </g>
     <g id="text_15">
      <!-- 本 -->
      <g transform="translate(30.15 153.950535) scale(0.1 -0.1)">
       <use xlink:href="#LastResortHE-Regular-7a"/>
      </g>
     </g>
    </g>
    <g id="ytick_7">
     <g id="line2d_15">
      <g>
       <use xlink:href="#m471fae4ce0" x="48.625" y="170.157109" style="stroke: #000000; stroke-width: 0.8"/>
      </g>
     </g>
     <g id="text_16">
      <!-- 破る -->
      <g transform="translate(18.675 173.955937) scale(0.1 -0.1)">
       <use xlink:href="#LastResortHE-Regular-7a"/>
       <use xlink:href="#LastResortHE-Regular-6e" transform="translate(114.75 0)"/>
      </g>
     </g>
    </g>
    <g id="ytick_8">
     <g id="line2d_16">
      <g>
       <use xlink:href="#m471fae4ce0" x="48.625" y="190.162511" style="stroke: #000000; stroke-width: 0.8"/>
      </g>
     </g>
     <g id="text_17">
      <!-- 中 -->
      <g transform="translate(30.15 193.961339) scale(0.1 -0.1)">
       <use xlink:href="#LastResortHE-Regular-7a"/>
      </g>
     </g>
    </g>
    <g id="ytick_9">
     <g id="line2d_17">
      <g>
       <use xlink:href="#m471fae4ce0" x="48.625" y="210.167913" style="stroke: #000000; stroke-width: 0.8"/>
      </g>
     </g>
     <g id="text_18">
      <!-- 自転車 -->
      <g transform="translate(7.2 213.966741) scale(0.1 -0.1)">
       <use xlink:href="#LastResortHE-Regular-7a"/>
       <use xlink:href="#LastResortHE-Regular-7a" transform="translate(114.75 0)"/>
       <use xlink:href="#LastResortHE-Regular-7a" transform="translate(229.5 0)"/>
      </g>
     </g>
    </g>
    <g id="ytick_10">
     <g id="line2d_18">
      <g>
       <use xlink:href="#m471fae4ce0" x="48.625" y="230.173315" style="stroke: #000000; stroke-width: 0.8"/>
      </g>
     </g>
     <g id="text_19">
      <!-- 折 -->
      <g transform="translate(30.15 233.972143) scale(0.1 -0.1)">
       <use xlink:href="#LastResortHE-Regular-7a"/>
      </g>
     </g>
    </g>
    <g id="ytick_11">
     <g id="line2d_19">
      <g>
       <use xlink:href="#m471fae4ce0" x="48.625" y="250.178717" style="stroke: #000000; stroke-width: 0.8"/>
      </g>
     </g>
     <g id="text_20">
      <!-- 強打 -->
      <g transform="translate(18.675 253.977545) scale(0.1 -0.1)">
       <use xlink:href="#LastResortHE-Regular-7a"/>
       <use xlink:href="#LastResortHE-Regular-7a" transform="translate(114.75 0)"/>
      </g>
     </g>
    </g>
    <g id="ytick_12">
     <g id="line2d_20">
      <g>
       <use xlink:href="#m471fae4ce0" x="48.625" y="270.184119" style="stroke: #000000; stroke-width: 0.8"/>
      </g>
     </g>
     <g id="text_21">
      <!-- 加える -->
      <g transform="translate(7.2 273.982947) scale(0.1 -0.1)">
       <use xlink:href="#LastResortHE-Regular-7a"/>
       <use xlink:href="#LastResortHE-Regular-6e" transform="translate(114.75 0)"/>
       <use xlink:href="#LastResortHE-Regular-6e" transform="translate(229.5 0)"/>
      </g>
     </g>
    </g>
    <g id="ytick_13">
     <g id="line2d_21">
      <g>
       <use xlink:href="#m471fae4ce0" x="48.625" y="290.189521" style="stroke: #000000; stroke-width: 0.8"/>
      </g>
     </g>
     <g id="text_22">
      <!-- 補綴 -->
      <g transform="translate(18.675 293.988349) scale(0.1 -0.1)">
       <use xlink:href="#LastResortHE-Regular-7a"/>
       <use xlink:href="#LastResortHE-Regular-7a" transform="translate(114.75 0)"/>
      </g>
     </g>
    </g>
    <g id="ytick_14">
     <g id="line2d_22">
      <g>
       <use xlink:href="#m471fae4ce0" x="48.625" y="310.194923" style="stroke: #000000; stroke-width: 0.8"/>
      </g>
     </g>
     <g id="text_23">
      <!-- 歯科 -->
      <g transform="translate(18.675 313.993751) scale(0.1 -0.1)">
       <use xlink:href="#LastResortHE-Regular-7a"/>
       <use xlink:href="#LastResortHE-Regular-7a" transform="translate(114.75 0)"/>
      </g>
     </g>
    </g>
    <g id="ytick_15">
     <g id="line2d_23">
      <g>
       <use xlink:href="#m471fae4ce0" x="48.625" y="330.200325" style="stroke: #000000; stroke-width: 0.8"/>
      </g>
     </g>
     <g id="text_24">
      <!-- 転倒 -->
      <g transform="translate(18.675 333.999153) scale(0.1 -0.1)">
       <use xlink:href="#LastResortHE-Regular-7a"/>
       <use xlink:href="#LastResortHE-Regular-7a" transform="translate(114.75 0)"/>
      </g>
     </g>
    </g>
    <g id="ytick_16">
     <g id="line2d_24">
      <g>
       <use xlink:href="#m471fae4ce0" x="48.625" y="350.205727" style="stroke: #000000; stroke-width: 0.8"/>
      </g>
     </g>
     <g id="text_25">
      <!-- する -->
      <g transform="translate(18.675 354.004555) scale(0.1 -0.1)">
       <use xlink:href="#LastResortHE-Regular-6e"/>
       <use xlink:href="#LastResortHE-Regular-6e" transform="translate(114.75 0)"/>
      </g>
     </g>
    </g>
    <g id="ytick_17">
     <g id="line2d_25">
      <g>
       <use xlink:href="#m471fae4ce0" x="48.625" y="370.211129" style="stroke: #000000; stroke-width: 0.8"/>
      </g>
     </g>
     <g id="text_26">
      <!-- 口 -->
      <g transform="translate(30.15 374.009957) scale(0.1 -0.1)">
       <use xlink:href="#LastResortHE-Regular-7a"/>
      </g>
     </g>
    </g>
    <g id="ytick_18">
     <g id="line2d_26">
      <g>
       <use xlink:href="#m471fae4ce0" x="48.625" y="390.216531" style="stroke: #000000; stroke-width: 0.8"/>
      </g>
     </g>
     <g id="text_27">
      <!-- 顔面 -->
      <g transform="translate(18.675 394.015359) scale(0.1 -0.1)">
       <use xlink:href="#LastResortHE-Regular-7a"/>
       <use xlink:href="#LastResortHE-Regular-7a" transform="translate(114.75 0)"/>
      </g>
     </g>
    </g>
    <g id="ytick_19">
     <g id="line2d_27">
      <g>
       <use xlink:href="#m471fae4ce0" x="48.625" y="410.221933" style="stroke: #000000; stroke-width: 0.8"/>
      </g>
     </g>
     <g id="text_28">
      <!-- 歯 -->
      <g transform="translate(30.15 414.020761) scale(0.1 -0.1)">
       <use xlink:href="#LastResortHE-Regular-7a"/>
      </g>
     </g>
    </g>
    <g id="ytick_20">
     <g id="line2d_28">
      <g>
       <use xlink:href="#m471fae4ce0" x="48.625" y="430.227335" style="stroke: #000000; stroke-width: 0.8"/>
      </g>
     </g>
     <g id="text_29">
      <!-- 前歯 -->
      <g transform="translate(18.675 434.026163) scale(0.1 -0.1)">
       <use xlink:href="#LastResortHE-Regular-7a"/>
       <use xlink:href="#LastResortHE-Regular-7a" transform="translate(114.75 0)"/>
      </g>
     </g>
    </g>
   </g>
   <g id="patch_23">
    <path d="M 48.625 458.034844 
L 48.625 22.317188 
" style="fill: none; stroke: #000000; stroke-width: 0.8; stroke-linejoin: miter; stroke-linecap: square"/>
   </g>
   <g id="patch_24">
    <path d="M 705.465 458.034844 
L 705.465 22.317188 
" style="fill: none; stroke: #000000; stroke-width: 0.8; stroke-linejoin: miter; stroke-linecap: square"/>
   </g>
   <g id="patch_25">
    <path d="M 48.625 458.034844 
L 705.465 458.034844 
" style="fill: none; stroke: #000000; stroke-width: 0.8; stroke-linejoin: miter; stroke-linecap: square"/>
   </g>
   <g id="patch_26">
    <path d="M 48.625 22.317187 
L 705.465 22.317187 
" style="fill: none; stroke: #000000; stroke-width: 0.8; stroke-linejoin: miter; stroke-linecap: square"/>
   </g>
   <g id="text_30">
    <!-- 歯牙障害で相対的に多い特徴語 -->
    <g transform="translate(280.655 16.317187) scale(0.12 -0.12)">
     <use xlink:href="#LastResortHE-Regular-7a"/>
     <use xlink:href="#LastResortHE-Regular-7a" transform="translate(114.75 0)"/>
     <use xlink:href="#LastResortHE-Regular-7a" transform="translate(229.5 0)"/>
     <use xlink:href="#LastResortHE-Regular-7a" transform="translate(344.25 0)"/>
     <use xlink:href="#LastResortHE-Regular-6e" transform="translate(459 0)"/>
     <use xlink:href="#LastResortHE-Regular-7a" transform="translate(573.75 0)"/>
     <use xlink:href="#LastResortHE-Regular-7a" transform="translate(688.5 0)"/>
     <use xlink:href="#LastResortHE-Regular-7a" transform="translate(803.25 0)"/>
     <use xlink:href="#LastResortHE-Regular-6e" transform="translate(918 0)"/>
     <use xlink:href="#LastResortHE-Regular-7a" transform="translate(1032.75 0)"/>
     <use xlink:href="#LastResortHE-Regular-6e" transform="translate(1147.5 0)"/>
     <use xlink:href="#LastResortHE-Regular-7a" transform="translate(1262.25 0)"/>
     <use xlink:href="#LastResortHE-Regular-7a" transform="translate(1377 0)"/>
     <use xlink:href="#LastResortHE-Regular-7a" transform="translate(1491.75 0)"/>
    </g>
   </g>
  </g>
 </g>
 <defs>
  <clipPath id="p70dfc18851">
   <rect x="48.625" y="22.317187" width="656.84" height="435.717656"/>
  </clipPath>
 </defs>
</svg>
