<?xml version="1.0" encoding="utf-8" standalone="no"?>
<!DOCTYPE svg PUBLIC "-//W3C//DTD SVG 1.1//EN"
  "http://www.w3.org/Graphics/SVG/1.1/DTD/svg11.dtd">
<svg xmlns:xlink="http://www.w3.org/1999/xlink" width="713.446739pt" height="496.557187pt" viewBox="0 0 713.446739 496.557187" xmlns="http://www.w3.org/2000/svg" version="1.1">
 <metadata>
  <rdf:RDF xmlns:dc="http://purl.org/dc/elements/1.1/" xmlns:cc="http://creativecommons.org/ns#" xmlns:rdf="http://www.w3.org/1999/02/22-rdf-syntax-ns#">
   <cc:Work>
    <dc:type rdf:resource="http://purl.org/dc/dcmitype/StillImage"/>
    <dc:date>2026-07-16T02:09:30.585642</dc:date>
    <dc:format>image/svg+xml</dc:format>
    <dc:creator>
     <cc:Agent>
      <dc:title>Matplotlib v3.11.0, https://matplotlib.org/</dc:title>
     </cc:Agent>
    </dc:creator>
   </cc:Work>
  </rdf:RDF>
 </metadata>
 <defs>
  <style type="text/css">*{stroke-linejoin: round; stroke-linecap: butt}</style>
 </defs>
 <g id="figure_1">
  <g id="patch_1">
   <path d="M 0 496.557187 
L 713.446739 496.557187 
L 713.446739 0 
L 0 0 
z
" style="fill: #ffffff"/>
  </g>
  <g id="axes_1">
   <g id="patch_2">
    <path d="M 313.44375 458.357188 
L 703.990169 458.357188 
L 703.990169 22.317187 
L 313.44375 22.317187 
z
" style="fill: #ffffff"/>
   </g>
   <g id="patch_3">
    <path d="M 313.44375 42.137187 
L 361.748811 42.137187 
L 361.748811 63.564215 
L 313.44375 63.564215 
z
" clip-path="url(#p81f870cb2f)" style="fill: #1f77b4"/>
   </g>
   <g id="patch_4">
    <path d="M 313.44375 68.920971 
L 361.748811 68.920971 
L 361.748811 90.347998 
L 313.44375 90.347998 
z
" clip-path="url(#p81f870cb2f)" style="fill: #1f77b4"/>
   </g>
   <g id="patch_5">
    <path d="M 313.44375 95.704755 
L 361.748811 95.704755 
L 361.748811 117.131782 
L 313.44375 117.131782 
z
" clip-path="url(#p81f870cb2f)" style="fill: #1f77b4"/>
   </g>
   <g id="patch_6">
    <path d="M 313.44375 122.488539 
L 361.748811 122.488539 
L 361.748811 143.915566 
L 313.44375 143.915566 
z
" clip-path="url(#p81f870cb2f)" style="fill: #1f77b4"/>
   </g>
   <g id="patch_7">
    <path d="M 313.44375 149.272323 
L 366.579317 149.272323 
L 366.579317 170.69935 
L 313.44375 170.69935 
z
" clip-path="url(#p81f870cb2f)" style="fill: #1f77b4"/>
   </g>
   <g id="patch_8">
    <path d="M 313.44375 176.056106 
L 371.409823 176.056106 
L 371.409823 197.483133 
L 313.44375 197.483133 
z
" clip-path="url(#p81f870cb2f)" style="fill: #1f77b4"/>
   </g>
   <g id="patch_9">
    <path d="M 313.44375 202.83989 
L 376.240329 202.83989 
L 376.240329 224.266917 
L 313.44375 224.266917 
z
" clip-path="url(#p81f870cb2f)" style="fill: #1f77b4"/>
   </g>
   <g id="patch_10">
    <path d="M 313.44375 229.623674 
L 376.240329 229.623674 
L 376.240329 251.050701 
L 313.44375 251.050701 
z
" clip-path="url(#p81f870cb2f)" style="fill: #1f77b4"/>
   </g>
   <g id="patch_11">
    <path d="M 313.44375 256.407458 
L 381.070836 256.407458 
L 381.070836 277.834485 
L 313.44375 277.834485 
z
" clip-path="url(#p81f870cb2f)" style="fill: #1f77b4"/>
   </g>
   <g id="patch_12">
    <path d="M 313.44375 283.191242 
L 381.070836 283.191242 
L 381.070836 304.618269 
L 313.44375 304.618269 
z
" clip-path="url(#p81f870cb2f)" style="fill: #1f77b4"/>
   </g>
   <g id="patch_13">
    <path d="M 313.44375 309.975025 
L 385.901342 309.975025 
L 385.901342 331.402052 
L 313.44375 331.402052 
z
" clip-path="url(#p81f870cb2f)" style="fill: #1f77b4"/>
   </g>
   <g id="patch_14">
    <path d="M 313.44375 336.758809 
L 414.884378 336.758809 
L 414.884378 358.185836 
L 313.44375 358.185836 
z
" clip-path="url(#p81f870cb2f)" style="fill: #1f77b4"/>
   </g>
   <g id="patch_15">
    <path d="M 313.44375 363.542593 
L 424.545391 363.542593 
L 424.545391 384.96962 
L 313.44375 384.96962 
z
" clip-path="url(#p81f870cb2f)" style="fill: #1f77b4"/>
   </g>
   <g id="patch_16">
    <path d="M 313.44375 390.326377 
L 535.647031 390.326377 
L 535.647031 411.753404 
L 313.44375 411.753404 
z
" clip-path="url(#p81f870cb2f)" style="fill: #1f77b4"/>
   </g>
   <g id="patch_17">
    <path d="M 313.44375 417.11016 
L 685.392721 417.11016 
L 685.392721 438.537188 
L 313.44375 438.537188 
z
" clip-path="url(#p81f870cb2f)" style="fill: #1f77b4"/>
   </g>
   <g id="matplotlib.axis_1">
    <g id="xtick_1">
     <g id="line2d_1">
      <defs>
       <path id="m6a8e5c0294" d="M 0 0 
L 0 3.5 
" style="stroke: #000000; stroke-width: 0.8"/>
      </defs>
      <g>
       <use xlink:href="#m6a8e5c0294" x="313.44375" y="458.357188" style="stroke: #000000; stroke-width: 0.8"/>
      </g>
     </g>
     <g id="text_1">
      <!-- 0 -->
      <g transform="translate(310.2625 472.954844) scale(0.1 -0.1)">
       <defs>
        <path id="DejaVuSans-13" d="M 2034 4250 
Q 1547 4250 1301 3770 
Q 1056 3291 1056 2328 
Q 1056 1369 1301 889 
Q 1547 409 2034 409 
Q 2525 409 2770 889 
Q 3016 1369 3016 2328 
Q 3016 3291 2770 3770 
Q 2525 4250 2034 4250 
z
M 2034 4750 
Q 2819 4750 3233 4129 
Q 3647 3509 3647 2328 
Q 3647 1150 3233 529 
Q 2819 -91 2034 -91 
Q 1250 -91 836 529 
Q 422 1150 422 2328 
Q 422 3509 836 4129 
Q 1250 4750 2034 4750 
z
" transform="scale(0.015625)"/>
       </defs>
       <use xlink:href="#DejaVuSans-13"/>
      </g>
     </g>
    </g>
    <g id="xtick_2">
     <g id="line2d_2">
      <g>
       <use xlink:href="#m6a8e5c0294" x="361.748811" y="458.357188" style="stroke: #000000; stroke-width: 0.8"/>
      </g>
     </g>
     <g id="text_2">
      <!-- 10 -->
      <g transform="translate(355.386311 472.954844) scale(0.1 -0.1)">
       <defs>
        <path id="DejaVuSans-14" d="M 794 531 
L 1825 531 
L 1825 4091 
L 703 3866 
L 703 4441 
L 1819 4666 
L 2450 4666 
L 2450 531 
L 3481 531 
L 3481 0 
L 794 0 
L 794 531 
z
" transform="scale(0.015625)"/>
       </defs>
       <use xlink:href="#DejaVuSans-14"/>
       <use xlink:href="#DejaVuSans-13" transform="translate(63.625 0)"/>
      </g>
     </g>
    </g>
    <g id="xtick_3">
     <g id="line2d_3">
      <g>
       <use xlink:href="#m6a8e5c0294" x="410.053872" y="458.357188" style="stroke: #000000; stroke-width: 0.8"/>
      </g>
     </g>
     <g id="text_3">
      <!-- 20 -->
      <g transform="translate(403.691372 472.954844) scale(0.1 -0.1)">
       <defs>
        <path id="DejaVuSans-15" d="M 1228 531 
L 3431 531 
L 3431 0 
L 469 0 
L 469 531 
Q 828 903 1448 1529 
Q 2069 2156 2228 2338 
Q 2531 2678 2651 2914 
Q 2772 3150 2772 3378 
Q 2772 3750 2511 3984 
Q 2250 4219 1831 4219 
Q 1534 4219 1204 4116 
Q 875 4013 500 3803 
L 500 4441 
Q 881 4594 1212 4672 
Q 1544 4750 1819 4750 
Q 2544 4750 2975 4387 
Q 3406 4025 3406 3419 
Q 3406 3131 3298 2873 
Q 3191 2616 2906 2266 
Q 2828 2175 2409 1742 
Q 1991 1309 1228 531 
z
" transform="scale(0.015625)"/>
       </defs>
       <use xlink:href="#DejaVuSans-15"/>
       <use xlink:href="#DejaVuSans-13" transform="translate(63.625 0)"/>
      </g>
     </g>
    </g>
    <g id="xtick_4">
     <g id="line2d_4">
      <g>
       <use xlink:href="#m6a8e5c0294" x="458.358933" y="458.357188" style="stroke: #000000; stroke-width: 0.8"/>
      </g>
     </g>
     <g id="text_4">
      <!-- 30 -->
      <g transform="translate(451.996433 472.954844) scale(0.1 -0.1)">
       <defs>
        <path id="DejaVuSans-16" d="M 2597 2516 
Q 3050 2419 3304 2112 
Q 3559 1806 3559 1356 
Q 3559 666 3084 287 
Q 2609 -91 1734 -91 
Q 1441 -91 1130 -33 
Q 819 25 488 141 
L 488 750 
Q 750 597 1062 519 
Q 1375 441 1716 441 
Q 2309 441 2620 675 
Q 2931 909 2931 1356 
Q 2931 1769 2642 2001 
Q 2353 2234 1838 2234 
L 1294 2234 
L 1294 2753 
L 1863 2753 
Q 2328 2753 2575 2939 
Q 2822 3125 2822 3475 
Q 2822 3834 2567 4026 
Q 2313 4219 1838 4219 
Q 1578 4219 1281 4162 
Q 984 4106 628 3988 
L 628 4550 
Q 988 4650 1302 4700 
Q 1616 4750 1894 4750 
Q 2613 4750 3031 4423 
Q 3450 4097 3450 3541 
Q 3450 3153 3228 2886 
Q 3006 2619 2597 2516 
z
" transform="scale(0.015625)"/>
       </defs>
       <use xlink:href="#DejaVuSans-16"/>
       <use xlink:href="#DejaVuSans-13" transform="translate(63.625 0)"/>
      </g>
     </g>
    </g>
    <g id="xtick_5">
     <g id="line2d_5">
      <g>
       <use xlink:href="#m6a8e5c0294" x="506.663995" y="458.357188" style="stroke: #000000; stroke-width: 0.8"/>
      </g>
     </g>
     <g id="text_5">
      <!-- 40 -->
      <g transform="translate(500.301495 472.954844) scale(0.1 -0.1)">
       <defs>
        <path id="DejaVuSans-17" d="M 2419 4116 
L 825 1625 
L 2419 1625 
L 2419 4116 
z
M 2253 4666 
L 3047 4666 
L 3047 1625 
L 3713 1625 
L 3713 1100 
L 3047 1100 
L 3047 0 
L 2419 0 
L 2419 1100 
L 313 1100 
L 313 1709 
L 2253 4666 
z
" transform="scale(0.015625)"/>
       </defs>
       <use xlink:href="#DejaVuSans-17"/>
       <use xlink:href="#DejaVuSans-13" transform="translate(63.625 0)"/>
      </g>
     </g>
    </g>
    <g id="xtick_6">
     <g id="line2d_6">
      <g>
       <use xlink:href="#m6a8e5c0294" x="554.969056" y="458.357188" style="stroke: #000000; stroke-width: 0.8"/>
      </g>
     </g>
     <g id="text_6">
      <!-- 50 -->
      <g transform="translate(548.606556 472.954844) scale(0.1 -0.1)">
       <defs>
        <path id="DejaVuSans-18" d="M 691 4666 
L 3169 4666 
L 3169 4134 
L 1269 4134 
L 1269 2991 
Q 1406 3038 1543 3061 
Q 1681 3084 1819 3084 
Q 2600 3084 3056 2656 
Q 3513 2228 3513 1497 
Q 3513 744 3044 326 
Q 2575 -91 1722 -91 
Q 1428 -91 1123 -41 
Q 819 9 494 109 
L 494 744 
Q 775 591 1075 516 
Q 1375 441 1709 441 
Q 2250 441 2565 725 
Q 2881 1009 2881 1497 
Q 2881 1984 2565 2268 
Q 2250 2553 1709 2553 
Q 1456 2553 1204 2497 
Q 953 2441 691 2322 
L 691 4666 
z
" transform="scale(0.015625)"/>
       </defs>
       <use xlink:href="#DejaVuSans-18"/>
       <use xlink:href="#DejaVuSans-13" transform="translate(63.625 0)"/>
      </g>
     </g>
    </g>
    <g id="xtick_7">
     <g id="line2d_7">
      <g>
       <use xlink:href="#m6a8e5c0294" x="603.274117" y="458.357188" style="stroke: #000000; stroke-width: 0.8"/>
      </g>
     </g>
     <g id="text_7">
      <!-- 60 -->
      <g transform="translate(596.911617 472.954844) scale(0.1 -0.1)">
       <defs>
        <path id="DejaVuSans-19" d="M 2113 2584 
Q 1688 2584 1439 2293 
Q 1191 2003 1191 1497 
Q 1191 994 1439 701 
Q 1688 409 2113 409 
Q 2538 409 2786 701 
Q 3034 994 3034 1497 
Q 3034 2003 2786 2293 
Q 2538 2584 2113 2584 
z
M 3366 4563 
L 3366 3988 
Q 3128 4100 2886 4159 
Q 2644 4219 2406 4219 
Q 1781 4219 1451 3797 
Q 1122 3375 1075 2522 
Q 1259 2794 1537 2939 
Q 1816 3084 2150 3084 
Q 2853 3084 3261 2657 
Q 3669 2231 3669 1497 
Q 3669 778 3244 343 
Q 2819 -91 2113 -91 
Q 1303 -91 875 529 
Q 447 1150 447 2328 
Q 447 3434 972 4092 
Q 1497 4750 2381 4750 
Q 2619 4750 2861 4703 
Q 3103 4656 3366 4563 
z
" transform="scale(0.015625)"/>
       </defs>
       <use xlink:href="#DejaVuSans-19"/>
       <use xlink:href="#DejaVuSans-13" transform="translate(63.625 0)"/>
      </g>
     </g>
    </g>
    <g id="xtick_8">
     <g id="line2d_8">
      <g>
       <use xlink:href="#m6a8e5c0294" x="651.579178" y="458.357188" style="stroke: #000000; stroke-width: 0.8"/>
      </g>
     </g>
     <g id="text_8">
      <!-- 70 -->
      <g transform="translate(645.216678 472.954844) scale(0.1 -0.1)">
       <defs>
        <path id="DejaVuSans-1a" d="M 525 4666 
L 3525 4666 
L 3525 4397 
L 1831 0 
L 1172 0 
L 2766 4134 
L 525 4134 
L 525 4666 
z
" transform="scale(0.015625)"/>
       </defs>
       <use xlink:href="#DejaVuSans-1a"/>
       <use xlink:href="#DejaVuSans-13" transform="translate(63.625 0)"/>
      </g>
     </g>
    </g>
    <g id="xtick_9">
     <g id="line2d_9">
      <g>
       <use xlink:href="#m6a8e5c0294" x="699.884239" y="458.357188" style="stroke: #000000; stroke-width: 0.8"/>
      </g>
     </g>
     <g id="text_9">
      <!-- 80 -->
      <g transform="translate(693.521739 472.954844) scale(0.1 -0.1)">
       <defs>
        <path id="DejaVuSans-1b" d="M 2034 2216 
Q 1584 2216 1326 1975 
Q 1069 1734 1069 1313 
Q 1069 891 1326 650 
Q 1584 409 2034 409 
Q 2484 409 2743 651 
Q 3003 894 3003 1313 
Q 3003 1734 2745 1975 
Q 2488 2216 2034 2216 
z
M 1403 2484 
Q 997 2584 770 2862 
Q 544 3141 544 3541 
Q 544 4100 942 4425 
Q 1341 4750 2034 4750 
Q 2731 4750 3128 4425 
Q 3525 4100 3525 3541 
Q 3525 3141 3298 2862 
Q 3072 2584 2669 2484 
Q 3125 2378 3379 2068 
Q 3634 1759 3634 1313 
Q 3634 634 3220 271 
Q 2806 -91 2034 -91 
Q 1263 -91 848 271 
Q 434 634 434 1313 
Q 434 1759 690 2068 
Q 947 2378 1403 2484 
z
M 1172 3481 
Q 1172 3119 1398 2916 
Q 1625 2713 2034 2713 
Q 2441 2713 2670 2916 
Q 2900 3119 2900 3481 
Q 2900 3844 2670 4047 
Q 2441 4250 2034 4250 
Q 1625 4250 1398 4047 
Q 1172 3844 1172 3481 
z
" transform="scale(0.015625)"/>
       </defs>
       <use xlink:href="#DejaVuSans-1b"/>
       <use xlink:href="#DejaVuSans-13" transform="translate(63.625 0)"/>
      </g>
     </g>
    </g>
    <g id="text_10">
     <!-- 事例数 -->
     <g transform="translate(491.50446 486.954844) scale(0.1 -0.1)">
      <defs>
       <path id="LastResortHE-Regular-7a" d="M 6731 -747 
L 6731 4250 
Q 6731 4409 6656 4534 
Q 6578 4663 6451 4738 
Q 6325 4813 6169 4813 
L 1175 4813 
Q 1022 4813 894 4738 
Q 766 4659 689 4532 
Q 613 4406 613 4250 
L 613 -747 
Q 613 -903 691 -1028 
Q 766 -1156 894 -1232 
Q 1022 -1309 1175 -1309 
L 6169 -1309 
Q 6328 -1309 6453 -1231 
Q 6581 -1156 6656 -1028 
Q 6731 -900 6731 -747 
z
M 4131 4266 
L 3991 4431 
L 3991 4266 
L 3875 4266 
L 3875 4738 
L 3991 4738 
L 3991 4563 
L 4141 4738 
L 4250 4738 
L 4044 4500 
L 4250 4266 
L 4131 4266 
z
M 3791 4369 
Q 3791 4266 3691 4266 
L 3578 4266 
Q 3478 4266 3478 4369 
L 3478 4484 
L 3594 4484 
L 3594 4375 
L 3606 4344 
L 3634 4331 
L 3666 4344 
L 3678 4375 
L 3678 4738 
L 3791 4738 
L 3791 4369 
z
M 3344 4381 
L 3406 4381 
Q 3403 4266 3300 4266 
L 3200 4266 
Q 3094 4266 3094 4375 
L 3094 4628 
Q 3094 4738 3200 4738 
L 3300 4738 
Q 3400 4738 3406 4619 
L 3344 4619 
Q 3341 4669 3300 4669 
L 3253 4669 
L 3222 4656 
L 3206 4625 
L 3206 4375 
L 3222 4344 
L 3253 4331 
L 3300 4331 
Q 3341 4331 3344 4381 
z
M 6122 3750 
L 6122 -247 
Q 6122 -372 6063 -472 
Q 6003 -575 5900 -636 
Q 5797 -697 5672 -697 
L 1672 -697 
Q 1553 -697 1447 -634 
Q 1344 -572 1283 -470 
Q 1222 -369 1222 -247 
L 1222 3750 
Q 1222 3872 1284 3978 
Q 1347 4078 1448 4139 
Q 1550 4200 1672 4200 
L 5672 4200 
Q 5800 4200 5900 4141 
Q 6000 4081 6061 3978 
Q 6122 3875 6122 3750 
z
M 3863 3350 
Q 3863 3544 3256 3778 
L 3225 3778 
Q 3206 3747 3206 3719 
Q 3272 3681 3516 3409 
Q 3734 3163 3778 3163 
Q 3797 3163 3819 3172 
Q 3863 3234 3863 3350 
z
M 5684 2994 
Q 5541 3288 5384 3288 
Q 5350 3288 5269 3222 
Q 5184 3147 5163 3138 
L 2244 3138 
L 2222 3372 
L 2191 3372 
Q 2141 3372 2134 3356 
Q 2134 2984 1863 2669 
Q 1769 2563 1769 2538 
Q 1769 2516 1881 2434 
Q 2228 2563 2247 3000 
L 2259 3016 
L 5225 3016 
L 5088 2784 
L 4972 2588 
Q 4972 2563 5016 2544 
Q 5266 2775 5425 2934 
Q 5438 2947 5478 2947 
Q 5581 2947 5684 2994 
z
M 6600 2819 
L 6600 2628 
Q 6600 2553 6540 2497 
Q 6481 2441 6406 2441 
L 6309 2441 
L 6309 2509 
Q 6472 2509 6472 2606 
L 6472 2619 
Q 6459 2600 6425 2600 
L 6372 2600 
Q 6253 2600 6253 2713 
L 6253 2819 
Q 6253 2931 6372 2931 
L 6481 2931 
Q 6600 2931 6600 2819 
z
M 1050 2597 
L 1050 2438 
L 928 2438 
L 928 2597 
L 719 2597 
L 719 2659 
L 931 2925 
L 1050 2925 
L 1050 2663 
L 1103 2663 
L 1103 2597 
L 1050 2597 
z
M 6472 2816 
L 6459 2850 
L 6425 2863 
L 6394 2850 
L 6378 2816 
L 6378 2716 
L 6394 2681 
L 6425 2669 
L 6459 2681 
L 6472 2716 
L 6472 2816 
z
M 928 2831 
L 797 2663 
L 928 2663 
L 928 2831 
z
M 5675 1234 
Q 5675 1272 5637 1326 
Q 5600 1381 5538 1438 
Q 5478 1494 5414 1536 
Q 5350 1578 5303 1591 
Q 5253 1538 5222 1497 
Q 5191 1456 5175 1431 
Q 5156 1400 5142 1378 
Q 5128 1356 5119 1341 
Q 5097 1313 5073 1306 
Q 5050 1300 4994 1300 
L 3816 1300 
L 3816 1609 
L 3819 1641 
Q 4013 1744 4013 1759 
L 3934 1859 
Q 4041 1903 4125 1942 
Q 4209 1981 4278 2013 
Q 4344 2044 4391 2066 
Q 4438 2088 4463 2103 
L 4703 2238 
Q 4788 2250 4856 2266 
Q 4891 2272 4917 2275 
Q 4944 2278 4966 2281 
L 4966 2306 
Q 4963 2322 4950 2340 
Q 4938 2359 4922 2384 
Q 4838 2488 4750 2572 
Q 4706 2606 4691 2606 
Q 4584 2606 4484 2475 
L 4322 2459 
L 2788 2459 
Q 2731 2459 2613 2478 
Q 2497 2497 2434 2497 
L 2363 2497 
Q 2416 2303 2478 2303 
L 2859 2344 
L 4456 2344 
L 3800 1888 
L 3566 1966 
Q 3566 1953 3567 1942 
Q 3569 1931 3572 1916 
Q 3575 1900 3576 1883 
Q 3578 1866 3581 1844 
Q 3588 1803 3592 1772 
Q 3597 1741 3597 1719 
L 3597 1300 
L 1875 1300 
Q 1859 1300 1806 1309 
Q 1778 1316 1740 1322 
Q 1703 1328 1659 1341 
L 1659 1306 
L 1731 1122 
Q 1822 1122 1984 1163 
Q 2150 1200 2234 1200 
Q 2581 1200 2922 1186 
Q 3263 1172 3597 1147 
L 3597 119 
L 3534 66 
L 2816 113 
L 2816 38 
Q 2975 -6 3072 -34 
Q 3169 -63 3228 -91 
Q 3288 -119 3330 -161 
Q 3372 -203 3419 -275 
Q 3875 -259 3875 306 
Q 3875 319 3875 331 
Q 3875 344 3875 356 
Q 3875 369 3875 381 
Q 3875 394 3872 406 
L 3825 1147 
L 5659 1147 
Q 5666 1175 5670 1197 
Q 5675 1219 5675 1234 
z
M 788 1822 
L 788 2306 
L 1050 2306 
L 1050 2238 
L 900 2238 
L 900 2097 
L 1000 2097 
L 1000 2031 
L 900 2031 
L 900 1891 
L 1050 1891 
L 1050 1822 
L 788 1822 
z
M 6406 2238 
L 6406 2097 
L 6506 2097 
L 6506 2031 
L 6406 2031 
L 6406 1822 
L 6294 1822 
L 6294 2306 
L 6556 2306 
L 6556 2238 
L 6406 2238 
z
M 6406 1628 
L 6406 1488 
L 6506 1488 
L 6506 1419 
L 6406 1419 
L 6406 1213 
L 6294 1213 
L 6294 1694 
L 6556 1694 
L 6556 1628 
L 6406 1628 
z
M 1091 1581 
L 1091 1316 
Q 1091 1203 978 1203 
L 856 1203 
Q 744 1203 744 1313 
L 744 1584 
Q 744 1694 856 1694 
L 978 1694 
Q 1091 1694 1091 1581 
z
M 966 1578 
L 950 1613 
L 919 1625 
L 884 1613 
L 872 1578 
L 872 1319 
L 884 1288 
L 919 1272 
L 950 1288 
L 966 1319 
L 966 1578 
z
M 6391 991 
L 6391 881 
L 6538 881 
L 6538 794 
L 6391 794 
L 6391 588 
L 6263 588 
L 6263 1078 
L 6581 1078 
L 6581 991 
L 6391 991 
z
M 1091 963 
L 1091 700 
Q 1091 588 978 588 
L 856 588 
Q 744 588 744 694 
L 744 969 
Q 744 1075 856 1075 
L 978 1075 
Q 1091 1075 1091 963 
z
M 966 963 
L 950 994 
L 919 1006 
L 884 994 
L 872 963 
L 872 703 
L 884 669 
L 919 656 
L 950 669 
L 966 703 
L 966 963 
z
M 1825 -1234 
L 1825 -763 
L 1931 -763 
L 1931 -1234 
L 1825 -1234 
z
M 3553 -881 
L 3488 -881 
Q 3484 -831 3444 -831 
L 3397 -831 
L 3366 -844 
L 3353 -875 
L 3353 -1125 
L 3366 -1156 
L 3397 -1169 
Q 3438 -1166 3438 -1125 
L 3438 -1031 
L 3388 -1031 
L 3388 -966 
L 3550 -966 
L 3550 -1125 
Q 3550 -1234 3444 -1234 
L 3344 -1234 
Q 3238 -1234 3238 -1125 
L 3238 -872 
Q 3238 -763 3344 -763 
L 3444 -763 
Q 3547 -763 3553 -881 
z
M 3844 -1234 
L 3844 -1078 
L 3831 -1044 
L 3800 -1031 
L 3759 -1031 
L 3759 -1234 
L 3644 -1234 
L 3644 -763 
L 3856 -763 
Q 3956 -763 3956 -900 
Q 3956 -969 3906 -991 
L 3941 -1006 
L 3956 -1047 
L 3956 -1234 
L 3844 -1234 
z
M 2475 -1234 
L 2475 -763 
L 2738 -763 
L 2738 -831 
L 2588 -831 
L 2588 -966 
L 2688 -966 
L 2688 -1031 
L 2588 -1031 
L 2588 -1169 
L 2738 -1169 
L 2738 -1234 
L 2475 -1234 
z
M 2375 -872 
L 2375 -1125 
Q 2375 -1234 2272 -1234 
L 2063 -1234 
L 2063 -763 
L 2272 -763 
Q 2375 -763 2375 -872 
z
M 4244 -1234 
L 4244 -1031 
L 4159 -1031 
L 4159 -1234 
L 4044 -1234 
L 4044 -869 
Q 4044 -763 4147 -763 
L 4256 -763 
Q 4356 -763 4356 -872 
L 4356 -1234 
L 4244 -1234 
z
M 4753 -872 
L 4753 -928 
Q 4753 -1031 4594 -1031 
L 4553 -1031 
L 4553 -1234 
L 4441 -1234 
L 4441 -763 
L 4650 -763 
Q 4753 -763 4753 -872 
z
M 5028 -1234 
L 5028 -1031 
L 4941 -1031 
L 4941 -1234 
L 4828 -1234 
L 4828 -763 
L 4941 -763 
L 4941 -966 
L 5028 -966 
L 5028 -763 
L 5141 -763 
L 5141 -1234 
L 5028 -1234 
z
M 5519 -1125 
Q 5519 -1234 5416 -1234 
L 5356 -1234 
Q 5256 -1234 5256 -1119 
L 5322 -1119 
L 5322 -1131 
L 5334 -1159 
L 5363 -1169 
L 5394 -1156 
L 5403 -1125 
Q 5403 -1116 5331 -1025 
Q 5256 -934 5256 -872 
Q 5256 -763 5356 -763 
L 5419 -763 
Q 5513 -763 5519 -881 
L 5456 -881 
Q 5450 -828 5416 -828 
Q 5403 -831 5395 -834 
Q 5388 -838 5381 -841 
Q 5378 -844 5378 -848 
Q 5378 -853 5375 -859 
Q 5372 -863 5372 -867 
Q 5372 -872 5369 -875 
Q 5369 -881 5444 -972 
Q 5519 -1059 5519 -1125 
z
M 3153 -872 
L 3153 -1125 
Q 3153 -1234 3053 -1234 
L 2944 -1234 
Q 2841 -1234 2841 -1131 
L 2841 -869 
Q 2841 -766 2944 -766 
L 3053 -766 
Q 3153 -766 3153 -872 
z
M 4638 -875 
L 4625 -844 
L 4594 -831 
L 4553 -831 
L 4553 -966 
L 4594 -966 
L 4625 -953 
L 4638 -922 
L 4638 -875 
z
M 4244 -875 
L 4231 -844 
L 4200 -831 
L 4172 -844 
L 4159 -875 
L 4159 -966 
L 4244 -966 
L 4244 -875 
z
M 3844 -875 
L 3831 -844 
L 3800 -831 
L 3759 -831 
L 3759 -966 
L 3800 -966 
L 3831 -953 
L 3844 -922 
L 3844 -875 
z
M 3041 -875 
L 3028 -844 
L 2997 -831 
L 2969 -844 
L 2956 -875 
L 2956 -1125 
L 2969 -1156 
L 2997 -1169 
L 3028 -1156 
L 3041 -1125 
L 3041 -875 
z
M 2259 -875 
L 2247 -844 
L 2216 -831 
L 2175 -831 
L 2175 -1169 
L 2216 -1169 
L 2247 -1156 
L 2259 -1125 
L 2259 -875 
z
" transform="scale(0.015625)"/>
      </defs>
      <use xlink:href="#LastResortHE-Regular-7a"/>
      <use xlink:href="#LastResortHE-Regular-7a" transform="translate(114.75 0)"/>
      <use xlink:href="#LastResortHE-Regular-7a" transform="translate(229.5 0)"/>
     </g>
    </g>
   </g>
   <g id="matplotlib.axis_2">
    <g id="ytick_1">
     <g id="line2d_10">
      <defs>
       <path id="mfe319e12fb" d="M 0 0 
L -3.5 0 
" style="stroke: #000000; stroke-width: 0.8"/>
      </defs>
      <g>
       <use xlink:href="#mfe319e12fb" x="313.44375" y="52.850701" style="stroke: #000000; stroke-width: 0.8"/>
      </g>
     </g>
     <g id="text_11">
      <!-- 原因物:乗り物 -&gt; 受傷機転:転倒 -->
      <g transform="translate(143.6625 56.649529) scale(0.1 -0.1)">
       <defs>
        <path id="DejaVuSans-1d" d="M 750 794 
L 1409 794 
L 1409 0 
L 750 0 
L 750 794 
z
M 750 3309 
L 1409 3309 
L 1409 2516 
L 750 2516 
L 750 3309 
z
" transform="scale(0.015625)"/>
        <path id="LastResortHE-Regular-6e" d="M 6734 -747 
L 6734 4250 
Q 6734 4409 6659 4534 
Q 6581 4663 6454 4738 
Q 6328 4813 6172 4813 
L 1175 4813 
Q 1019 4813 891 4738 
Q 763 4663 688 4534 
Q 613 4406 613 4250 
L 613 -747 
Q 613 -903 688 -1031 
Q 763 -1159 891 -1234 
Q 1019 -1309 1175 -1309 
L 6172 -1309 
Q 6331 -1309 6456 -1231 
Q 6584 -1156 6659 -1028 
Q 6734 -900 6734 -747 
z
M 5069 4266 
L 5069 4469 
L 4981 4469 
L 4981 4266 
L 4869 4266 
L 4869 4631 
Q 4869 4738 4969 4738 
L 5081 4738 
Q 5181 4738 5181 4628 
L 5181 4266 
L 5069 4266 
z
M 4759 4266 
L 4494 4509 
L 4494 4266 
L 4428 4266 
L 4428 4738 
L 4459 4738 
L 4728 4494 
L 4728 4738 
L 4794 4738 
L 4794 4266 
L 4759 4266 
z
M 4213 4266 
L 4213 4469 
L 4128 4469 
L 4128 4266 
L 4016 4266 
L 4016 4631 
Q 4016 4738 4116 4738 
L 4225 4738 
Q 4328 4738 4328 4628 
L 4328 4266 
L 4213 4266 
z
M 3938 4375 
Q 3938 4266 3831 4266 
L 3731 4266 
Q 3625 4266 3625 4375 
L 3625 4628 
Q 3625 4738 3731 4738 
L 3831 4738 
Q 3931 4738 3938 4619 
L 3875 4619 
Q 3872 4669 3831 4669 
L 3781 4669 
L 3753 4656 
L 3738 4625 
L 3738 4375 
L 3753 4344 
L 3781 4331 
Q 3825 4338 3825 4375 
L 3825 4469 
L 3775 4469 
L 3775 4534 
L 3938 4534 
L 3938 4375 
z
M 3422 4266 
L 3422 4469 
L 3338 4469 
L 3338 4266 
L 3222 4266 
L 3222 4631 
Q 3222 4738 3325 4738 
L 3434 4738 
Q 3538 4738 3538 4628 
L 3538 4266 
L 3422 4266 
z
M 2363 4266 
L 2363 4469 
L 2275 4469 
L 2275 4266 
L 2163 4266 
L 2163 4738 
L 2275 4738 
L 2275 4534 
L 2363 4534 
L 2363 4738 
L 2475 4738 
L 2475 4266 
L 2363 4266 
z
M 2594 4266 
L 2594 4738 
L 2697 4738 
L 2697 4266 
L 2594 4266 
z
M 3009 4266 
L 3009 4422 
L 2994 4456 
L 2966 4469 
L 2922 4469 
L 2922 4266 
L 2809 4266 
L 2809 4738 
L 3022 4738 
Q 3122 4738 3122 4600 
Q 3122 4531 3072 4509 
L 3106 4494 
L 3122 4453 
L 3122 4266 
L 3009 4266 
z
M 5069 4625 
L 5053 4656 
L 5025 4669 
L 4997 4656 
L 4981 4625 
L 4981 4534 
L 5069 4534 
L 5069 4625 
z
M 4213 4625 
L 4200 4656 
L 4172 4669 
L 4141 4656 
L 4128 4625 
L 4128 4534 
L 4213 4534 
L 4213 4625 
z
M 3422 4625 
L 3409 4656 
L 3378 4669 
L 3350 4656 
L 3338 4625 
L 3338 4534 
L 3422 4534 
L 3422 4625 
z
M 3009 4625 
L 2994 4656 
L 2966 4669 
L 2922 4669 
L 2922 4534 
L 2966 4534 
L 2994 4547 
L 3009 4578 
L 3009 4625 
z
M 6122 3750 
L 6122 -247 
Q 6122 -372 6063 -472 
Q 6003 -575 5900 -636 
Q 5797 -697 5672 -697 
L 1672 -697 
Q 1553 -697 1447 -634 
Q 1344 -572 1283 -470 
Q 1222 -369 1222 -247 
L 1222 3750 
Q 1222 3872 1284 3978 
Q 1347 4078 1448 4139 
Q 1550 4200 1672 4200 
L 5672 4200 
Q 5800 4200 5900 4141 
Q 6000 4081 6061 3978 
Q 6122 3875 6122 3750 
z
M 4281 1881 
Q 4281 2606 3778 2606 
Q 3728 2606 3650 2592 
Q 3572 2578 3469 2553 
Q 3259 2503 3159 2497 
Q 3159 2622 3319 2925 
Q 3475 3231 3475 3263 
Q 3475 3319 3419 3381 
Q 3363 3444 3278 3494 
Q 3191 3547 3102 3578 
Q 3013 3609 2947 3609 
Q 2809 3609 2775 3506 
Q 2831 3478 2873 3456 
Q 2916 3434 2944 3419 
Q 2997 3388 3015 3344 
Q 3034 3300 3034 3213 
Q 3034 3144 3014 3030 
Q 2994 2916 2959 2791 
Q 2925 2666 2887 2564 
Q 2850 2463 2813 2419 
Q 2241 2241 2047 2241 
Q 1900 2241 1831 2291 
Q 1791 2316 1761 2337 
Q 1731 2359 1709 2372 
Q 1688 2384 1675 2390 
Q 1663 2397 1659 2400 
Q 1619 2369 1619 2316 
Q 1619 2250 1669 2176 
Q 1719 2103 1794 2038 
Q 1869 1969 1951 1925 
Q 2034 1881 2100 1881 
Q 2100 1894 2272 1988 
Q 2281 1994 2300 2001 
Q 2319 2009 2350 2022 
Q 2409 2047 2479 2070 
Q 2550 2094 2606 2113 
Q 2663 2131 2678 2131 
Q 2709 2131 2713 2109 
Q 2634 1900 2540 1670 
Q 2447 1441 2328 1213 
Q 2213 984 2073 779 
Q 1934 575 1772 413 
Q 1681 303 1681 175 
Q 1681 34 1825 34 
Q 1972 34 2116 234 
Q 2263 434 2428 795 
Q 2594 1156 2788 1644 
Q 3022 2231 3069 2263 
Q 3106 2288 3184 2316 
Q 3263 2344 3356 2366 
Q 3447 2391 3531 2405 
Q 3616 2419 3663 2419 
Q 4013 2419 4013 1966 
Q 4013 1847 3986 1686 
Q 3959 1525 3913 1350 
Q 3866 1172 3800 1001 
Q 3734 831 3653 694 
Q 3572 556 3483 475 
Q 3394 394 3297 394 
Q 3181 394 2759 572 
Q 2738 572 2731 563 
L 2731 531 
L 2934 313 
Q 3000 241 3045 183 
Q 3091 125 3113 81 
L 3138 -44 
Q 3163 -109 3228 -109 
Q 3478 -109 3753 278 
Q 4281 1013 4281 1881 
z
M 1075 2647 
L 1075 2538 
Q 1075 2431 972 2431 
L 863 2431 
Q 775 2431 759 2550 
L 825 2550 
Q 828 2500 869 2500 
L 916 2500 
L 947 2513 
L 959 2544 
L 959 2647 
Q 959 2681 936 2687 
Q 913 2694 888 2694 
L 809 2691 
L 809 2756 
L 944 2847 
L 759 2847 
L 759 2916 
L 1075 2916 
L 1075 2850 
L 941 2759 
Q 1075 2756 1075 2647 
z
M 6584 2647 
L 6584 2538 
Q 6584 2431 6481 2431 
L 6372 2431 
Q 6284 2431 6269 2550 
L 6334 2550 
Q 6338 2500 6378 2500 
L 6425 2500 
L 6456 2513 
L 6469 2544 
L 6469 2647 
Q 6469 2681 6445 2687 
Q 6422 2694 6397 2694 
L 6319 2691 
L 6319 2756 
L 6453 2847 
L 6269 2847 
L 6269 2916 
L 6584 2916 
L 6584 2850 
L 6450 2759 
Q 6584 2756 6584 2647 
z
M 5725 1600 
Q 5725 1759 5638 1925 
Q 5550 2091 5408 2247 
Q 5266 2403 5100 2519 
Q 4988 2597 4861 2653 
Q 4734 2709 4632 2739 
Q 4531 2769 4488 2769 
Q 4469 2769 4444 2759 
L 4472 2709 
Q 4678 2578 4844 2434 
Q 4950 2341 5053 2220 
Q 5156 2100 5225 1992 
Q 5294 1884 5294 1819 
Q 5294 1728 5000 1659 
Q 4688 1584 4675 1563 
Q 4769 1522 5031 1488 
Q 5272 1456 5331 1422 
Q 5500 1272 5531 1272 
Q 5594 1272 5634 1328 
Q 5678 1381 5701 1459 
Q 5725 1538 5725 1600 
z
M 1091 2200 
L 1091 1938 
Q 1091 1825 978 1825 
L 856 1825 
Q 744 1825 744 1931 
L 744 2206 
Q 744 2313 856 2313 
L 978 2313 
Q 1091 2313 1091 2200 
z
M 6600 2200 
L 6600 1938 
Q 6600 1825 6488 1825 
L 6366 1825 
Q 6253 1825 6253 1931 
L 6253 2206 
Q 6253 2313 6366 2313 
L 6488 2313 
Q 6600 2313 6600 2200 
z
M 966 2200 
L 950 2231 
L 919 2244 
L 884 2231 
L 872 2200 
L 872 1938 
L 884 1906 
L 919 1894 
L 950 1906 
L 966 1938 
L 966 2200 
z
M 6472 2200 
L 6459 2231 
L 6425 2244 
L 6394 2231 
L 6378 2200 
L 6378 1938 
L 6394 1906 
L 6425 1894 
L 6459 1906 
L 6472 1938 
L 6472 2200 
z
M 6600 1581 
L 6600 1391 
Q 6600 1316 6540 1261 
Q 6481 1206 6406 1206 
L 6309 1206 
L 6309 1275 
Q 6363 1275 6417 1289 
Q 6472 1303 6472 1372 
L 6472 1384 
Q 6459 1363 6425 1363 
L 6372 1363 
Q 6253 1363 6253 1475 
L 6253 1581 
Q 6253 1694 6372 1694 
L 6481 1694 
Q 6600 1694 6600 1581 
z
M 1050 1363 
L 1050 1206 
L 928 1206 
L 928 1363 
L 719 1363 
L 719 1425 
L 931 1694 
L 1050 1694 
L 1050 1431 
L 1103 1431 
L 1103 1363 
L 1050 1363 
z
M 6472 1581 
L 6459 1613 
L 6425 1625 
L 6394 1613 
L 6378 1581 
L 6378 1478 
L 6394 1447 
L 6425 1431 
L 6459 1447 
L 6472 1478 
L 6472 1581 
z
M 928 1597 
L 797 1431 
L 928 1431 
L 928 1597 
z
M 6391 991 
L 6391 881 
L 6538 881 
L 6538 794 
L 6391 794 
L 6391 588 
L 6263 588 
L 6263 1078 
L 6581 1078 
L 6581 991 
L 6391 991 
z
M 1091 963 
L 1091 700 
Q 1091 588 978 588 
L 856 588 
Q 744 588 744 694 
L 744 969 
Q 744 1075 856 1075 
L 978 1075 
Q 1091 1075 1091 963 
z
M 966 963 
L 950 994 
L 919 1006 
L 884 994 
L 872 963 
L 872 703 
L 884 669 
L 919 656 
L 950 669 
L 966 703 
L 966 963 
z
M 2363 -1234 
L 2363 -1031 
L 2275 -1031 
L 2275 -1234 
L 2163 -1234 
L 2163 -763 
L 2275 -763 
L 2275 -966 
L 2363 -966 
L 2363 -763 
L 2475 -763 
L 2475 -1234 
L 2363 -1234 
z
M 3009 -1234 
L 3009 -1078 
L 2994 -1044 
L 2966 -1031 
L 2922 -1031 
L 2922 -1234 
L 2809 -1234 
L 2809 -763 
L 3022 -763 
Q 3122 -763 3122 -900 
Q 3122 -969 3072 -991 
L 3106 -1006 
L 3122 -1047 
L 3122 -1234 
L 3009 -1234 
z
M 3422 -1234 
L 3422 -1031 
L 3338 -1031 
L 3338 -1234 
L 3222 -1234 
L 3222 -869 
Q 3222 -763 3325 -763 
L 3434 -763 
Q 3538 -763 3538 -872 
L 3538 -1234 
L 3422 -1234 
z
M 3938 -1125 
Q 3938 -1234 3831 -1234 
L 3731 -1234 
Q 3625 -1234 3625 -1125 
L 3625 -872 
Q 3625 -763 3731 -763 
L 3831 -763 
Q 3931 -763 3938 -881 
L 3875 -881 
Q 3872 -831 3831 -831 
L 3781 -831 
L 3753 -844 
L 3738 -875 
L 3738 -1125 
L 3753 -1156 
L 3781 -1169 
Q 3825 -1163 3825 -1125 
L 3825 -1031 
L 3775 -1031 
L 3775 -966 
L 3938 -966 
L 3938 -1125 
z
M 2594 -1234 
L 2594 -763 
L 2697 -763 
L 2697 -1234 
L 2594 -1234 
z
M 4759 -1234 
L 4494 -991 
L 4494 -1234 
L 4428 -1234 
L 4428 -763 
L 4459 -763 
L 4728 -1006 
L 4728 -763 
L 4794 -763 
L 4794 -1234 
L 4759 -1234 
z
M 5069 -1234 
L 5069 -1031 
L 4981 -1031 
L 4981 -1234 
L 4869 -1234 
L 4869 -869 
Q 4869 -763 4969 -763 
L 5081 -763 
Q 5181 -763 5181 -872 
L 5181 -1234 
L 5069 -1234 
z
M 4213 -1234 
L 4213 -1031 
L 4128 -1031 
L 4128 -1234 
L 4016 -1234 
L 4016 -869 
Q 4016 -763 4116 -763 
L 4225 -763 
Q 4328 -763 4328 -872 
L 4328 -1234 
L 4213 -1234 
z
M 5069 -875 
L 5053 -844 
L 5025 -831 
L 4997 -844 
L 4981 -875 
L 4981 -966 
L 5069 -966 
L 5069 -875 
z
M 4213 -875 
L 4200 -844 
L 4172 -831 
L 4141 -844 
L 4128 -875 
L 4128 -966 
L 4213 -966 
L 4213 -875 
z
M 3422 -875 
L 3409 -844 
L 3378 -831 
L 3350 -844 
L 3338 -875 
L 3338 -966 
L 3422 -966 
L 3422 -875 
z
M 3009 -875 
L 2994 -844 
L 2966 -831 
L 2922 -831 
L 2922 -966 
L 2966 -966 
L 2994 -953 
L 3009 -922 
L 3009 -875 
z
M 2100 1881 
L 2103 1881 
L 2100 1881 
z
" transform="scale(0.015625)"/>
        <path id="DejaVuSans-3" transform="scale(0.015625)"/>
        <path id="DejaVuSans-10" d="M 313 2009 
L 1997 2009 
L 1997 1497 
L 313 1497 
L 313 2009 
z
" transform="scale(0.015625)"/>
        <path id="DejaVuSans-21" d="M 678 3150 
L 678 3719 
L 4684 2266 
L 4684 1747 
L 678 294 
L 678 863 
L 3897 2003 
L 678 3150 
z
" transform="scale(0.015625)"/>
       </defs>
       <use xlink:href="#LastResortHE-Regular-7a"/>
       <use xlink:href="#LastResortHE-Regular-7a" transform="translate(114.75 0)"/>
       <use xlink:href="#LastResortHE-Regular-7a" transform="translate(229.5 0)"/>
       <use xlink:href="#DejaVuSans-1d" transform="translate(344.25 0)"/>
       <use xlink:href="#LastResortHE-Regular-7a" transform="translate(377.9375 0)"/>
       <use xlink:href="#LastResortHE-Regular-6e" transform="translate(492.6875 0)"/>
       <use xlink:href="#LastResortHE-Regular-7a" transform="translate(607.4375 0)"/>
       <use xlink:href="#DejaVuSans-3" transform="translate(722.1875 0)"/>
       <use xlink:href="#DejaVuSans-10" transform="translate(753.96875 0)"/>
       <use xlink:href="#DejaVuSans-21" transform="translate(790.046875 0)"/>
       <use xlink:href="#DejaVuSans-3" transform="translate(873.84375 0)"/>
       <use xlink:href="#LastResortHE-Regular-7a" transform="translate(905.625 0)"/>
       <use xlink:href="#LastResortHE-Regular-7a" transform="translate(1020.375 0)"/>
       <use xlink:href="#LastResortHE-Regular-7a" transform="translate(1135.125 0)"/>
       <use xlink:href="#LastResortHE-Regular-7a" transform="translate(1249.875 0)"/>
       <use xlink:href="#DejaVuSans-1d" transform="translate(1364.625 0)"/>
       <use xlink:href="#LastResortHE-Regular-7a" transform="translate(1398.3125 0)"/>
       <use xlink:href="#LastResortHE-Regular-7a" transform="translate(1513.0625 0)"/>
      </g>
     </g>
    </g>
    <g id="ytick_2">
     <g id="line2d_11">
      <g>
       <use xlink:href="#mfe319e12fb" x="313.44375" y="79.634485" style="stroke: #000000; stroke-width: 0.8"/>
      </g>
     </g>
     <g id="text_12">
      <!-- 原因物:乗り物 -&gt; 受傷機転:転倒 -&gt; 受傷部位:歯牙 -->
      <g transform="translate(53.1 83.433313) scale(0.1 -0.1)">
       <use xlink:href="#LastResortHE-Regular-7a"/>
       <use xlink:href="#LastResortHE-Regular-7a" transform="translate(114.75 0)"/>
       <use xlink:href="#LastResortHE-Regular-7a" transform="translate(229.5 0)"/>
       <use xlink:href="#DejaVuSans-1d" transform="translate(344.25 0)"/>
       <use xlink:href="#LastResortHE-Regular-7a" transform="translate(377.9375 0)"/>
       <use xlink:href="#LastResortHE-Regular-6e" transform="translate(492.6875 0)"/>
       <use xlink:href="#LastResortHE-Regular-7a" transform="translate(607.4375 0)"/>
       <use xlink:href="#DejaVuSans-3" transform="translate(722.1875 0)"/>
       <use xlink:href="#DejaVuSans-10" transform="translate(753.96875 0)"/>
       <use xlink:href="#DejaVuSans-21" transform="translate(790.046875 0)"/>
       <use xlink:href="#DejaVuSans-3" transform="translate(873.84375 0)"/>
       <use xlink:href="#LastResortHE-Regular-7a" transform="translate(905.625 0)"/>
       <use xlink:href="#LastResortHE-Regular-7a" transform="translate(1020.375 0)"/>
       <use xlink:href="#LastResortHE-Regular-7a" transform="translate(1135.125 0)"/>
       <use xlink:href="#LastResortHE-Regular-7a" transform="translate(1249.875 0)"/>
       <use xlink:href="#DejaVuSans-1d" transform="translate(1364.625 0)"/>
       <use xlink:href="#LastResortHE-Regular-7a" transform="translate(1398.3125 0)"/>
       <use xlink:href="#LastResortHE-Regular-7a" transform="translate(1513.0625 0)"/>
       <use xlink:href="#DejaVuSans-3" transform="translate(1627.8125 0)"/>
       <use xlink:href="#DejaVuSans-10" transform="translate(1659.59375 0)"/>
       <use xlink:href="#DejaVuSans-21" transform="translate(1695.671875 0)"/>
       <use xlink:href="#DejaVuSans-3" transform="translate(1779.46875 0)"/>
       <use xlink:href="#LastResortHE-Regular-7a" transform="translate(1811.25 0)"/>
       <use xlink:href="#LastResortHE-Regular-7a" transform="translate(1926 0)"/>
       <use xlink:href="#LastResortHE-Regular-7a" transform="translate(2040.75 0)"/>
       <use xlink:href="#LastResortHE-Regular-7a" transform="translate(2155.5 0)"/>
       <use xlink:href="#DejaVuSans-1d" transform="translate(2270.25 0)"/>
       <use xlink:href="#LastResortHE-Regular-7a" transform="translate(2303.9375 0)"/>
       <use xlink:href="#LastResortHE-Regular-7a" transform="translate(2418.6875 0)"/>
      </g>
     </g>
    </g>
    <g id="ytick_3">
     <g id="line2d_12">
      <g>
       <use xlink:href="#mfe319e12fb" x="313.44375" y="106.418269" style="stroke: #000000; stroke-width: 0.8"/>
      </g>
     </g>
     <g id="text_13">
      <!-- 傷害結果:脱臼 -&gt; 原因物:スポーツ用具 -&gt; 受傷部位:歯牙 -->
      <g transform="translate(18.675 110.217097) scale(0.1 -0.1)">
       <defs>
        <path id="LastResortHE-Regular-6f" d="M 6734 -747 
L 6734 4250 
Q 6734 4409 6659 4534 
Q 6581 4663 6454 4738 
Q 6328 4813 6172 4813 
L 1175 4813 
Q 1022 4813 894 4738 
Q 766 4659 689 4532 
Q 613 4406 613 4250 
L 613 -747 
Q 613 -903 691 -1028 
Q 766 -1156 894 -1232 
Q 1022 -1309 1175 -1309 
L 6172 -1309 
Q 6331 -1309 6456 -1231 
Q 6584 -1156 6659 -1028 
Q 6734 -900 6734 -747 
z
M 5156 4266 
L 5156 4469 
L 5072 4469 
L 5072 4266 
L 4959 4266 
L 4959 4631 
Q 4959 4738 5059 4738 
L 5169 4738 
Q 5272 4738 5272 4628 
L 5272 4266 
L 5156 4266 
z
M 3113 4669 
L 3113 4266 
L 2997 4266 
L 2997 4669 
L 2897 4669 
L 2897 4738 
L 3209 4738 
L 3209 4669 
L 3113 4669 
z
M 3481 4266 
L 3481 4469 
L 3394 4469 
L 3394 4266 
L 3281 4266 
L 3281 4631 
Q 3281 4738 3381 4738 
L 3494 4738 
Q 3594 4738 3594 4628 
L 3594 4266 
L 3481 4266 
z
M 4303 4266 
L 4303 4469 
L 4219 4469 
L 4219 4266 
L 4103 4266 
L 4103 4631 
Q 4103 4738 4206 4738 
L 4316 4738 
Q 4419 4738 4419 4628 
L 4419 4266 
L 4303 4266 
z
M 2325 4263 
L 2188 4428 
L 2188 4263 
L 2072 4263 
L 2072 4734 
L 2188 4734 
L 2188 4563 
L 2338 4734 
L 2447 4734 
L 2241 4500 
L 2447 4263 
L 2325 4263 
z
M 4850 4263 
L 4584 4506 
L 4584 4263 
L 4519 4263 
L 4519 4734 
L 4550 4734 
L 4819 4491 
L 4819 4734 
L 4884 4734 
L 4884 4263 
L 4850 4263 
z
M 3925 4263 
L 3788 4428 
L 3788 4263 
L 3672 4263 
L 3672 4734 
L 3788 4734 
L 3788 4563 
L 3938 4734 
L 4047 4734 
L 3841 4500 
L 4047 4263 
L 3925 4263 
z
M 2697 4263 
L 2697 4466 
L 2613 4466 
L 2613 4263 
L 2500 4263 
L 2500 4631 
Q 2500 4734 2600 4734 
L 2709 4734 
Q 2813 4734 2813 4625 
L 2813 4263 
L 2697 4263 
z
M 5156 4625 
L 5144 4656 
L 5116 4669 
L 5084 4656 
L 5072 4625 
L 5072 4534 
L 5156 4534 
L 5156 4625 
z
M 4303 4625 
L 4291 4656 
L 4263 4669 
L 4231 4656 
L 4219 4625 
L 4219 4534 
L 4303 4534 
L 4303 4625 
z
M 3481 4625 
L 3466 4656 
L 3438 4669 
L 3409 4656 
L 3394 4625 
L 3394 4534 
L 3481 4534 
L 3481 4625 
z
M 2697 4625 
L 2684 4656 
L 2656 4669 
L 2625 4656 
L 2613 4625 
L 2613 4531 
L 2697 4531 
L 2697 4625 
z
M 6122 3750 
L 6122 -247 
Q 6122 -372 6063 -472 
Q 6003 -575 5900 -636 
Q 5797 -697 5672 -697 
L 1672 -697 
Q 1553 -697 1447 -634 
Q 1344 -572 1283 -470 
Q 1222 -369 1222 -247 
L 1222 3750 
Q 1222 3872 1284 3978 
Q 1347 4078 1448 4139 
Q 1550 4200 1672 4200 
L 5672 4200 
Q 5800 4200 5900 4141 
Q 6000 4081 6061 3978 
Q 6122 3875 6122 3750 
z
M 5453 2338 
Q 5453 2394 5414 2466 
Q 5375 2538 5316 2606 
Q 5256 2675 5190 2720 
Q 5125 2766 5072 2766 
Q 5044 2766 4903 2722 
Q 4834 2700 4784 2689 
Q 4734 2678 4700 2678 
Q 4591 2678 4378 2659 
Q 4163 2641 4053 2641 
Q 3991 2641 3991 2678 
Q 3991 2763 4169 3028 
Q 4347 3297 4347 3381 
Q 4347 3428 4280 3486 
Q 4213 3544 4116 3597 
Q 4019 3650 3926 3684 
Q 3834 3719 3781 3719 
Q 3709 3719 3678 3678 
L 3678 3644 
L 3825 3550 
Q 3916 3488 3916 3413 
Q 3916 3375 3891 3284 
Q 3866 3194 3825 3081 
Q 3784 2969 3737 2862 
Q 3691 2756 3650 2684 
Q 3606 2613 3584 2603 
Q 3400 2534 2759 2534 
Q 2734 2534 2675 2557 
Q 2616 2581 2544 2613 
Q 2472 2647 2414 2678 
Q 2356 2709 2338 2728 
Q 2334 2716 2332 2702 
Q 2331 2688 2331 2672 
Q 2331 2606 2373 2520 
Q 2416 2434 2481 2353 
Q 2544 2272 2617 2217 
Q 2691 2163 2750 2163 
Q 2872 2163 3078 2241 
Q 3291 2316 3403 2316 
Q 3438 2316 3456 2291 
Q 3113 1391 1891 188 
L 1934 175 
Q 2122 241 2322 394 
Q 2522 544 2723 751 
Q 2925 959 3113 1203 
Q 3300 1444 3461 1697 
Q 3622 1950 3741 2184 
Q 3819 2334 3844 2350 
Q 4000 2441 4844 2441 
Q 4950 2441 4994 2406 
Q 4988 2219 4947 2019 
Q 4900 1813 4820 1570 
Q 4741 1328 4628 1022 
Q 4591 916 4533 791 
Q 4475 666 4403 556 
Q 4334 444 4264 372 
Q 4194 300 4131 300 
Q 3991 300 3566 594 
L 3534 594 
Q 3563 494 3769 259 
Q 3956 50 3956 -34 
Q 3956 -141 3964 -178 
Q 3972 -216 4053 -216 
Q 4169 -216 4283 -116 
Q 4397 -16 4509 156 
Q 4619 328 4722 548 
Q 4825 769 4916 1016 
Q 5006 1259 5081 1503 
Q 5156 1747 5209 1966 
Q 5228 2047 5344 2172 
Q 5453 2300 5453 2338 
z
M 1075 2647 
L 1075 2538 
Q 1075 2431 972 2431 
L 863 2431 
Q 775 2431 759 2550 
L 825 2550 
Q 828 2500 869 2500 
L 916 2500 
L 947 2513 
L 959 2544 
L 959 2647 
Q 959 2681 936 2687 
Q 913 2694 888 2694 
L 809 2691 
L 809 2756 
L 944 2847 
L 759 2847 
L 759 2916 
L 1075 2916 
L 1075 2850 
L 941 2759 
Q 1075 2756 1075 2647 
z
M 6584 2647 
L 6584 2538 
Q 6584 2431 6481 2431 
L 6372 2431 
Q 6284 2431 6269 2550 
L 6334 2550 
Q 6338 2500 6378 2500 
L 6425 2500 
L 6456 2513 
L 6469 2544 
L 6469 2647 
Q 6469 2681 6445 2687 
Q 6422 2694 6397 2694 
L 6319 2691 
L 6319 2756 
L 6453 2847 
L 6269 2847 
L 6269 2916 
L 6584 2916 
L 6584 2850 
L 6450 2759 
Q 6584 2756 6584 2647 
z
M 1091 2200 
L 1091 1938 
Q 1091 1825 978 1825 
L 856 1825 
Q 744 1825 744 1931 
L 744 2206 
Q 744 2313 856 2313 
L 978 2313 
Q 1091 2313 1091 2200 
z
M 6600 2200 
L 6600 1938 
Q 6600 1825 6488 1825 
L 6366 1825 
Q 6253 1825 6253 1931 
L 6253 2206 
Q 6253 2313 6366 2313 
L 6488 2313 
Q 6600 2313 6600 2200 
z
M 966 2200 
L 950 2231 
L 919 2244 
L 884 2231 
L 872 2200 
L 872 1938 
L 884 1906 
L 919 1894 
L 950 1906 
L 966 1938 
L 966 2200 
z
M 6472 2200 
L 6459 2231 
L 6425 2244 
L 6394 2231 
L 6378 2200 
L 6378 1938 
L 6394 1906 
L 6425 1894 
L 6459 1906 
L 6472 1938 
L 6472 2200 
z
M 6406 1628 
L 6406 1488 
L 6506 1488 
L 6506 1419 
L 6406 1419 
L 6406 1213 
L 6294 1213 
L 6294 1694 
L 6556 1694 
L 6556 1628 
L 6406 1628 
z
M 966 1203 
L 966 1416 
L 872 1416 
L 872 1203 
L 747 1203 
L 747 1584 
Q 747 1694 859 1694 
L 978 1694 
Q 1091 1694 1091 1581 
L 1091 1203 
L 966 1203 
z
M 966 1578 
L 950 1613 
L 919 1625 
L 888 1613 
L 872 1578 
L 872 1484 
L 966 1484 
L 966 1578 
z
M 6391 991 
L 6391 881 
L 6538 881 
L 6538 794 
L 6391 794 
L 6391 588 
L 6263 588 
L 6263 1078 
L 6581 1078 
L 6581 991 
L 6391 991 
z
M 1091 963 
L 1091 700 
Q 1091 588 978 588 
L 856 588 
Q 744 588 744 694 
L 744 969 
Q 744 1075 856 1075 
L 978 1075 
Q 1091 1075 1091 963 
z
M 966 963 
L 950 994 
L 919 1006 
L 884 994 
L 872 963 
L 872 703 
L 884 669 
L 919 656 
L 950 669 
L 966 703 
L 966 963 
z
M 3113 -831 
L 3113 -1234 
L 2997 -1234 
L 2997 -831 
L 2897 -831 
L 2897 -763 
L 3209 -763 
L 3209 -831 
L 3113 -831 
z
M 3481 -1234 
L 3481 -1031 
L 3394 -1031 
L 3394 -1234 
L 3281 -1234 
L 3281 -869 
Q 3281 -763 3381 -763 
L 3494 -763 
Q 3594 -763 3594 -872 
L 3594 -1234 
L 3481 -1234 
z
M 4850 -1234 
L 4584 -991 
L 4584 -1234 
L 4519 -1234 
L 4519 -763 
L 4550 -763 
L 4819 -1006 
L 4819 -763 
L 4884 -763 
L 4884 -1234 
L 4850 -1234 
z
M 5156 -1234 
L 5156 -1031 
L 5072 -1031 
L 5072 -1234 
L 4959 -1234 
L 4959 -869 
Q 4959 -763 5059 -763 
L 5169 -763 
Q 5272 -763 5272 -872 
L 5272 -1234 
L 5156 -1234 
z
M 4303 -1234 
L 4303 -1031 
L 4219 -1031 
L 4219 -1234 
L 4103 -1234 
L 4103 -869 
Q 4103 -763 4206 -763 
L 4316 -763 
Q 4419 -763 4419 -872 
L 4419 -1234 
L 4303 -1234 
z
M 2697 -1238 
L 2697 -1034 
L 2613 -1034 
L 2613 -1238 
L 2500 -1238 
L 2500 -869 
Q 2500 -766 2600 -766 
L 2709 -766 
Q 2813 -766 2813 -875 
L 2813 -1238 
L 2697 -1238 
z
M 2325 -1238 
L 2188 -1072 
L 2188 -1238 
L 2072 -1238 
L 2072 -766 
L 2188 -766 
L 2188 -938 
L 2338 -766 
L 2447 -766 
L 2241 -1000 
L 2447 -1238 
L 2325 -1238 
z
M 3925 -1238 
L 3788 -1072 
L 3788 -1238 
L 3672 -1238 
L 3672 -766 
L 3788 -766 
L 3788 -938 
L 3938 -766 
L 4047 -766 
L 3841 -1000 
L 4047 -1238 
L 3925 -1238 
z
M 5156 -875 
L 5144 -844 
L 5116 -831 
L 5084 -844 
L 5072 -875 
L 5072 -966 
L 5156 -966 
L 5156 -875 
z
M 4303 -875 
L 4291 -844 
L 4263 -831 
L 4231 -844 
L 4219 -875 
L 4219 -966 
L 4303 -966 
L 4303 -875 
z
M 3481 -875 
L 3466 -844 
L 3438 -831 
L 3409 -844 
L 3394 -875 
L 3394 -966 
L 3481 -966 
L 3481 -875 
z
M 2697 -875 
L 2684 -844 
L 2656 -831 
L 2625 -844 
L 2613 -875 
L 2613 -969 
L 2697 -969 
L 2697 -875 
z
M 2331 2741 
Q 2331 2741 2332 2737 
Q 2334 2734 2338 2728 
Q 2338 2741 2341 2744 
L 2363 2753 
Q 2331 2753 2331 2741 
z
" transform="scale(0.015625)"/>
       </defs>
       <use xlink:href="#LastResortHE-Regular-7a"/>
       <use xlink:href="#LastResortHE-Regular-7a" transform="translate(114.75 0)"/>
       <use xlink:href="#LastResortHE-Regular-7a" transform="translate(229.5 0)"/>
       <use xlink:href="#LastResortHE-Regular-7a" transform="translate(344.25 0)"/>
       <use xlink:href="#DejaVuSans-1d" transform="translate(459 0)"/>
       <use xlink:href="#LastResortHE-Regular-7a" transform="translate(492.6875 0)"/>
       <use xlink:href="#LastResortHE-Regular-7a" transform="translate(607.4375 0)"/>
       <use xlink:href="#DejaVuSans-3" transform="translate(722.1875 0)"/>
       <use xlink:href="#DejaVuSans-10" transform="translate(753.96875 0)"/>
       <use xlink:href="#DejaVuSans-21" transform="translate(790.046875 0)"/>
       <use xlink:href="#DejaVuSans-3" transform="translate(873.84375 0)"/>
       <use xlink:href="#LastResortHE-Regular-7a" transform="translate(905.625 0)"/>
       <use xlink:href="#LastResortHE-Regular-7a" transform="translate(1020.375 0)"/>
       <use xlink:href="#LastResortHE-Regular-7a" transform="translate(1135.125 0)"/>
       <use xlink:href="#DejaVuSans-1d" transform="translate(1249.875 0)"/>
       <use xlink:href="#LastResortHE-Regular-6f" transform="translate(1283.5625 0)"/>
       <use xlink:href="#LastResortHE-Regular-6f" transform="translate(1398.3125 0)"/>
       <use xlink:href="#LastResortHE-Regular-6f" transform="translate(1513.0625 0)"/>
       <use xlink:href="#LastResortHE-Regular-6f" transform="translate(1627.8125 0)"/>
       <use xlink:href="#LastResortHE-Regular-7a" transform="translate(1742.5625 0)"/>
       <use xlink:href="#LastResortHE-Regular-7a" transform="translate(1857.3125 0)"/>
       <use xlink:href="#DejaVuSans-3" transform="translate(1972.0625 0)"/>
       <use xlink:href="#DejaVuSans-10" transform="translate(2003.84375 0)"/>
       <use xlink:href="#DejaVuSans-21" transform="translate(2039.921875 0)"/>
       <use xlink:href="#DejaVuSans-3" transform="translate(2123.71875 0)"/>
       <use xlink:href="#LastResortHE-Regular-7a" transform="translate(2155.5 0)"/>
       <use xlink:href="#LastResortHE-Regular-7a" transform="translate(2270.25 0)"/>
       <use xlink:href="#LastResortHE-Regular-7a" transform="translate(2385 0)"/>
       <use xlink:href="#LastResortHE-Regular-7a" transform="translate(2499.75 0)"/>
       <use xlink:href="#DejaVuSans-1d" transform="translate(2614.5 0)"/>
       <use xlink:href="#LastResortHE-Regular-7a" transform="translate(2648.1875 0)"/>
       <use xlink:href="#LastResortHE-Regular-7a" transform="translate(2762.9375 0)"/>
      </g>
     </g>
    </g>
    <g id="ytick_4">
     <g id="line2d_13">
      <g>
       <use xlink:href="#mfe319e12fb" x="313.44375" y="133.202052" style="stroke: #000000; stroke-width: 0.8"/>
      </g>
     </g>
     <g id="text_14">
      <!-- 傷害結果:欠損 -&gt; 原因物:スポーツ用具 -&gt; 受傷部位:歯牙 -->
      <g transform="translate(18.675 137.00088) scale(0.1 -0.1)">
       <use xlink:href="#LastResortHE-Regular-7a"/>
       <use xlink:href="#LastResortHE-Regular-7a" transform="translate(114.75 0)"/>
       <use xlink:href="#LastResortHE-Regular-7a" transform="translate(229.5 0)"/>
       <use xlink:href="#LastResortHE-Regular-7a" transform="translate(344.25 0)"/>
       <use xlink:href="#DejaVuSans-1d" transform="translate(459 0)"/>
       <use xlink:href="#LastResortHE-Regular-7a" transform="translate(492.6875 0)"/>
       <use xlink:href="#LastResortHE-Regular-7a" transform="translate(607.4375 0)"/>
       <use xlink:href="#DejaVuSans-3" transform="translate(722.1875 0)"/>
       <use xlink:href="#DejaVuSans-10" transform="translate(753.96875 0)"/>
       <use xlink:href="#DejaVuSans-21" transform="translate(790.046875 0)"/>
       <use xlink:href="#DejaVuSans-3" transform="translate(873.84375 0)"/>
       <use xlink:href="#LastResortHE-Regular-7a" transform="translate(905.625 0)"/>
       <use xlink:href="#LastResortHE-Regular-7a" transform="translate(1020.375 0)"/>
       <use xlink:href="#LastResortHE-Regular-7a" transform="translate(1135.125 0)"/>
       <use xlink:href="#DejaVuSans-1d" transform="translate(1249.875 0)"/>
       <use xlink:href="#LastResortHE-Regular-6f" transform="translate(1283.5625 0)"/>
       <use xlink:href="#LastResortHE-Regular-6f" transform="translate(1398.3125 0)"/>
       <use xlink:href="#LastResortHE-Regular-6f" transform="translate(1513.0625 0)"/>
       <use xlink:href="#LastResortHE-Regular-6f" transform="translate(1627.8125 0)"/>
       <use xlink:href="#LastResortHE-Regular-7a" transform="translate(1742.5625 0)"/>
       <use xlink:href="#LastResortHE-Regular-7a" transform="translate(1857.3125 0)"/>
       <use xlink:href="#DejaVuSans-3" transform="translate(1972.0625 0)"/>
       <use xlink:href="#DejaVuSans-10" transform="translate(2003.84375 0)"/>
       <use xlink:href="#DejaVuSans-21" transform="translate(2039.921875 0)"/>
       <use xlink:href="#DejaVuSans-3" transform="translate(2123.71875 0)"/>
       <use xlink:href="#LastResortHE-Regular-7a" transform="translate(2155.5 0)"/>
       <use xlink:href="#LastResortHE-Regular-7a" transform="translate(2270.25 0)"/>
       <use xlink:href="#LastResortHE-Regular-7a" transform="translate(2385 0)"/>
       <use xlink:href="#LastResortHE-Regular-7a" transform="translate(2499.75 0)"/>
       <use xlink:href="#DejaVuSans-1d" transform="translate(2614.5 0)"/>
       <use xlink:href="#LastResortHE-Regular-7a" transform="translate(2648.1875 0)"/>
       <use xlink:href="#LastResortHE-Regular-7a" transform="translate(2762.9375 0)"/>
      </g>
     </g>
    </g>
    <g id="ytick_5">
     <g id="line2d_14">
      <g>
       <use xlink:href="#mfe319e12fb" x="313.44375" y="159.985836" style="stroke: #000000; stroke-width: 0.8"/>
      </g>
     </g>
     <g id="text_15">
      <!-- 原因物:スポーツ用具 -&gt; 受傷機転:衝突 -&gt; 受傷部位:歯牙 -->
      <g transform="translate(18.675 163.784664) scale(0.1 -0.1)">
       <use xlink:href="#LastResortHE-Regular-7a"/>
       <use xlink:href="#LastResortHE-Regular-7a" transform="translate(114.75 0)"/>
       <use xlink:href="#LastResortHE-Regular-7a" transform="translate(229.5 0)"/>
       <use xlink:href="#DejaVuSans-1d" transform="translate(344.25 0)"/>
       <use xlink:href="#LastResortHE-Regular-6f" transform="translate(377.9375 0)"/>
       <use xlink:href="#LastResortHE-Regular-6f" transform="translate(492.6875 0)"/>
       <use xlink:href="#LastResortHE-Regular-6f" transform="translate(607.4375 0)"/>
       <use xlink:href="#LastResortHE-Regular-6f" transform="translate(722.1875 0)"/>
       <use xlink:href="#LastResortHE-Regular-7a" transform="translate(836.9375 0)"/>
       <use xlink:href="#LastResortHE-Regular-7a" transform="translate(951.6875 0)"/>
       <use xlink:href="#DejaVuSans-3" transform="translate(1066.4375 0)"/>
       <use xlink:href="#DejaVuSans-10" transform="translate(1098.21875 0)"/>
       <use xlink:href="#DejaVuSans-21" transform="translate(1134.296875 0)"/>
       <use xlink:href="#DejaVuSans-3" transform="translate(1218.09375 0)"/>
       <use xlink:href="#LastResortHE-Regular-7a" transform="translate(1249.875 0)"/>
       <use xlink:href="#LastResortHE-Regular-7a" transform="translate(1364.625 0)"/>
       <use xlink:href="#LastResortHE-Regular-7a" transform="translate(1479.375 0)"/>
       <use xlink:href="#LastResortHE-Regular-7a" transform="translate(1594.125 0)"/>
       <use xlink:href="#DejaVuSans-1d" transform="translate(1708.875 0)"/>
       <use xlink:href="#LastResortHE-Regular-7a" transform="translate(1742.5625 0)"/>
       <use xlink:href="#LastResortHE-Regular-7a" transform="translate(1857.3125 0)"/>
       <use xlink:href="#DejaVuSans-3" transform="translate(1972.0625 0)"/>
       <use xlink:href="#DejaVuSans-10" transform="translate(2003.84375 0)"/>
       <use xlink:href="#DejaVuSans-21" transform="translate(2039.921875 0)"/>
       <use xlink:href="#DejaVuSans-3" transform="translate(2123.71875 0)"/>
       <use xlink:href="#LastResortHE-Regular-7a" transform="translate(2155.5 0)"/>
       <use xlink:href="#LastResortHE-Regular-7a" transform="translate(2270.25 0)"/>
       <use xlink:href="#LastResortHE-Regular-7a" transform="translate(2385 0)"/>
       <use xlink:href="#LastResortHE-Regular-7a" transform="translate(2499.75 0)"/>
       <use xlink:href="#DejaVuSans-1d" transform="translate(2614.5 0)"/>
       <use xlink:href="#LastResortHE-Regular-7a" transform="translate(2648.1875 0)"/>
       <use xlink:href="#LastResortHE-Regular-7a" transform="translate(2762.9375 0)"/>
      </g>
     </g>
    </g>
    <g id="ytick_6">
     <g id="line2d_15">
      <g>
       <use xlink:href="#mfe319e12fb" x="313.44375" y="186.76962" style="stroke: #000000; stroke-width: 0.8"/>
      </g>
     </g>
     <g id="text_16">
      <!-- 受傷機転:転倒 -&gt; 受傷部位:歯牙 -->
      <g transform="translate(143.6625 190.568448) scale(0.1 -0.1)">
       <use xlink:href="#LastResortHE-Regular-7a"/>
       <use xlink:href="#LastResortHE-Regular-7a" transform="translate(114.75 0)"/>
       <use xlink:href="#LastResortHE-Regular-7a" transform="translate(229.5 0)"/>
       <use xlink:href="#LastResortHE-Regular-7a" transform="translate(344.25 0)"/>
       <use xlink:href="#DejaVuSans-1d" transform="translate(459 0)"/>
       <use xlink:href="#LastResortHE-Regular-7a" transform="translate(492.6875 0)"/>
       <use xlink:href="#LastResortHE-Regular-7a" transform="translate(607.4375 0)"/>
       <use xlink:href="#DejaVuSans-3" transform="translate(722.1875 0)"/>
       <use xlink:href="#DejaVuSans-10" transform="translate(753.96875 0)"/>
       <use xlink:href="#DejaVuSans-21" transform="translate(790.046875 0)"/>
       <use xlink:href="#DejaVuSans-3" transform="translate(873.84375 0)"/>
       <use xlink:href="#LastResortHE-Regular-7a" transform="translate(905.625 0)"/>
       <use xlink:href="#LastResortHE-Regular-7a" transform="translate(1020.375 0)"/>
       <use xlink:href="#LastResortHE-Regular-7a" transform="translate(1135.125 0)"/>
       <use xlink:href="#LastResortHE-Regular-7a" transform="translate(1249.875 0)"/>
       <use xlink:href="#DejaVuSans-1d" transform="translate(1364.625 0)"/>
       <use xlink:href="#LastResortHE-Regular-7a" transform="translate(1398.3125 0)"/>
       <use xlink:href="#LastResortHE-Regular-7a" transform="translate(1513.0625 0)"/>
      </g>
     </g>
    </g>
    <g id="ytick_7">
     <g id="line2d_16">
      <g>
       <use xlink:href="#mfe319e12fb" x="313.44375" y="213.553404" style="stroke: #000000; stroke-width: 0.8"/>
      </g>
     </g>
     <g id="text_17">
      <!-- 受傷機転:転倒 -&gt; 受傷部位:顎顔面 -->
      <g transform="translate(132.1875 217.352232) scale(0.1 -0.1)">
       <use xlink:href="#LastResortHE-Regular-7a"/>
       <use xlink:href="#LastResortHE-Regular-7a" transform="translate(114.75 0)"/>
       <use xlink:href="#LastResortHE-Regular-7a" transform="translate(229.5 0)"/>
       <use xlink:href="#LastResortHE-Regular-7a" transform="translate(344.25 0)"/>
       <use xlink:href="#DejaVuSans-1d" transform="translate(459 0)"/>
       <use xlink:href="#LastResortHE-Regular-7a" transform="translate(492.6875 0)"/>
       <use xlink:href="#LastResortHE-Regular-7a" transform="translate(607.4375 0)"/>
       <use xlink:href="#DejaVuSans-3" transform="translate(722.1875 0)"/>
       <use xlink:href="#DejaVuSans-10" transform="translate(753.96875 0)"/>
       <use xlink:href="#DejaVuSans-21" transform="translate(790.046875 0)"/>
       <use xlink:href="#DejaVuSans-3" transform="translate(873.84375 0)"/>
       <use xlink:href="#LastResortHE-Regular-7a" transform="translate(905.625 0)"/>
       <use xlink:href="#LastResortHE-Regular-7a" transform="translate(1020.375 0)"/>
       <use xlink:href="#LastResortHE-Regular-7a" transform="translate(1135.125 0)"/>
       <use xlink:href="#LastResortHE-Regular-7a" transform="translate(1249.875 0)"/>
       <use xlink:href="#DejaVuSans-1d" transform="translate(1364.625 0)"/>
       <use xlink:href="#LastResortHE-Regular-7a" transform="translate(1398.3125 0)"/>
       <use xlink:href="#LastResortHE-Regular-7a" transform="translate(1513.0625 0)"/>
       <use xlink:href="#LastResortHE-Regular-7a" transform="translate(1627.8125 0)"/>
      </g>
     </g>
    </g>
    <g id="ytick_8">
     <g id="line2d_17">
      <g>
       <use xlink:href="#mfe319e12fb" x="313.44375" y="240.337187" style="stroke: #000000; stroke-width: 0.8"/>
      </g>
     </g>
     <g id="text_18">
      <!-- 原因物:スポーツ用具 -&gt; 行動:球技 -->
      <g transform="translate(132.1875 244.136016) scale(0.1 -0.1)">
       <use xlink:href="#LastResortHE-Regular-7a"/>
       <use xlink:href="#LastResortHE-Regular-7a" transform="translate(114.75 0)"/>
       <use xlink:href="#LastResortHE-Regular-7a" transform="translate(229.5 0)"/>
       <use xlink:href="#DejaVuSans-1d" transform="translate(344.25 0)"/>
       <use xlink:href="#LastResortHE-Regular-6f" transform="translate(377.9375 0)"/>
       <use xlink:href="#LastResortHE-Regular-6f" transform="translate(492.6875 0)"/>
       <use xlink:href="#LastResortHE-Regular-6f" transform="translate(607.4375 0)"/>
       <use xlink:href="#LastResortHE-Regular-6f" transform="translate(722.1875 0)"/>
       <use xlink:href="#LastResortHE-Regular-7a" transform="translate(836.9375 0)"/>
       <use xlink:href="#LastResortHE-Regular-7a" transform="translate(951.6875 0)"/>
       <use xlink:href="#DejaVuSans-3" transform="translate(1066.4375 0)"/>
       <use xlink:href="#DejaVuSans-10" transform="translate(1098.21875 0)"/>
       <use xlink:href="#DejaVuSans-21" transform="translate(1134.296875 0)"/>
       <use xlink:href="#DejaVuSans-3" transform="translate(1218.09375 0)"/>
       <use xlink:href="#LastResortHE-Regular-7a" transform="translate(1249.875 0)"/>
       <use xlink:href="#LastResortHE-Regular-7a" transform="translate(1364.625 0)"/>
       <use xlink:href="#DejaVuSans-1d" transform="translate(1479.375 0)"/>
       <use xlink:href="#LastResortHE-Regular-7a" transform="translate(1513.0625 0)"/>
       <use xlink:href="#LastResortHE-Regular-7a" transform="translate(1627.8125 0)"/>
      </g>
     </g>
    </g>
    <g id="ytick_9">
     <g id="line2d_18">
      <g>
       <use xlink:href="#mfe319e12fb" x="313.44375" y="267.120971" style="stroke: #000000; stroke-width: 0.8"/>
      </g>
     </g>
     <g id="text_19">
      <!-- 受傷機転:転倒 -&gt; 受傷部位:顎顔面 -&gt; 衝突対象:床 -->
      <g transform="translate(53.1 270.919799) scale(0.1 -0.1)">
       <use xlink:href="#LastResortHE-Regular-7a"/>
       <use xlink:href="#LastResortHE-Regular-7a" transform="translate(114.75 0)"/>
       <use xlink:href="#LastResortHE-Regular-7a" transform="translate(229.5 0)"/>
       <use xlink:href="#LastResortHE-Regular-7a" transform="translate(344.25 0)"/>
       <use xlink:href="#DejaVuSans-1d" transform="translate(459 0)"/>
       <use xlink:href="#LastResortHE-Regular-7a" transform="translate(492.6875 0)"/>
       <use xlink:href="#LastResortHE-Regular-7a" transform="translate(607.4375 0)"/>
       <use xlink:href="#DejaVuSans-3" transform="translate(722.1875 0)"/>
       <use xlink:href="#DejaVuSans-10" transform="translate(753.96875 0)"/>
       <use xlink:href="#DejaVuSans-21" transform="translate(790.046875 0)"/>
       <use xlink:href="#DejaVuSans-3" transform="translate(873.84375 0)"/>
       <use xlink:href="#LastResortHE-Regular-7a" transform="translate(905.625 0)"/>
       <use xlink:href="#LastResortHE-Regular-7a" transform="translate(1020.375 0)"/>
       <use xlink:href="#LastResortHE-Regular-7a" transform="translate(1135.125 0)"/>
       <use xlink:href="#LastResortHE-Regular-7a" transform="translate(1249.875 0)"/>
       <use xlink:href="#DejaVuSans-1d" transform="translate(1364.625 0)"/>
       <use xlink:href="#LastResortHE-Regular-7a" transform="translate(1398.3125 0)"/>
       <use xlink:href="#LastResortHE-Regular-7a" transform="translate(1513.0625 0)"/>
       <use xlink:href="#LastResortHE-Regular-7a" transform="translate(1627.8125 0)"/>
       <use xlink:href="#DejaVuSans-3" transform="translate(1742.5625 0)"/>
       <use xlink:href="#DejaVuSans-10" transform="translate(1774.34375 0)"/>
       <use xlink:href="#DejaVuSans-21" transform="translate(1810.421875 0)"/>
       <use xlink:href="#DejaVuSans-3" transform="translate(1894.21875 0)"/>
       <use xlink:href="#LastResortHE-Regular-7a" transform="translate(1926 0)"/>
       <use xlink:href="#LastResortHE-Regular-7a" transform="translate(2040.75 0)"/>
       <use xlink:href="#LastResortHE-Regular-7a" transform="translate(2155.5 0)"/>
       <use xlink:href="#LastResortHE-Regular-7a" transform="translate(2270.25 0)"/>
       <use xlink:href="#DejaVuSans-1d" transform="translate(2385 0)"/>
       <use xlink:href="#LastResortHE-Regular-7a" transform="translate(2418.6875 0)"/>
      </g>
     </g>
    </g>
    <g id="ytick_10">
     <g id="line2d_19">
      <g>
       <use xlink:href="#mfe319e12fb" x="313.44375" y="293.904755" style="stroke: #000000; stroke-width: 0.8"/>
      </g>
     </g>
     <g id="text_20">
      <!-- 原因物:乗り物 -&gt; 受傷機転:転倒 -&gt; 受傷部位:顎顔面 -->
      <g transform="translate(41.625 297.703583) scale(0.1 -0.1)">
       <use xlink:href="#LastResortHE-Regular-7a"/>
       <use xlink:href="#LastResortHE-Regular-7a" transform="translate(114.75 0)"/>
       <use xlink:href="#LastResortHE-Regular-7a" transform="translate(229.5 0)"/>
       <use xlink:href="#DejaVuSans-1d" transform="translate(344.25 0)"/>
       <use xlink:href="#LastResortHE-Regular-7a" transform="translate(377.9375 0)"/>
       <use xlink:href="#LastResortHE-Regular-6e" transform="translate(492.6875 0)"/>
       <use xlink:href="#LastResortHE-Regular-7a" transform="translate(607.4375 0)"/>
       <use xlink:href="#DejaVuSans-3" transform="translate(722.1875 0)"/>
       <use xlink:href="#DejaVuSans-10" transform="translate(753.96875 0)"/>
       <use xlink:href="#DejaVuSans-21" transform="translate(790.046875 0)"/>
       <use xlink:href="#DejaVuSans-3" transform="translate(873.84375 0)"/>
       <use xlink:href="#LastResortHE-Regular-7a" transform="translate(905.625 0)"/>
       <use xlink:href="#LastResortHE-Regular-7a" transform="translate(1020.375 0)"/>
       <use xlink:href="#LastResortHE-Regular-7a" transform="translate(1135.125 0)"/>
       <use xlink:href="#LastResortHE-Regular-7a" transform="translate(1249.875 0)"/>
       <use xlink:href="#DejaVuSans-1d" transform="translate(1364.625 0)"/>
       <use xlink:href="#LastResortHE-Regular-7a" transform="translate(1398.3125 0)"/>
       <use xlink:href="#LastResortHE-Regular-7a" transform="translate(1513.0625 0)"/>
       <use xlink:href="#DejaVuSans-3" transform="translate(1627.8125 0)"/>
       <use xlink:href="#DejaVuSans-10" transform="translate(1659.59375 0)"/>
       <use xlink:href="#DejaVuSans-21" transform="translate(1695.671875 0)"/>
       <use xlink:href="#DejaVuSans-3" transform="translate(1779.46875 0)"/>
       <use xlink:href="#LastResortHE-Regular-7a" transform="translate(1811.25 0)"/>
       <use xlink:href="#LastResortHE-Regular-7a" transform="translate(1926 0)"/>
       <use xlink:href="#LastResortHE-Regular-7a" transform="translate(2040.75 0)"/>
       <use xlink:href="#LastResortHE-Regular-7a" transform="translate(2155.5 0)"/>
       <use xlink:href="#DejaVuSans-1d" transform="translate(2270.25 0)"/>
       <use xlink:href="#LastResortHE-Regular-7a" transform="translate(2303.9375 0)"/>
       <use xlink:href="#LastResortHE-Regular-7a" transform="translate(2418.6875 0)"/>
       <use xlink:href="#LastResortHE-Regular-7a" transform="translate(2533.4375 0)"/>
      </g>
     </g>
    </g>
    <g id="ytick_11">
     <g id="line2d_20">
      <g>
       <use xlink:href="#mfe319e12fb" x="313.44375" y="320.688539" style="stroke: #000000; stroke-width: 0.8"/>
      </g>
     </g>
     <g id="text_21">
      <!-- 受傷機転:衝突 -&gt; 受傷部位:歯牙 -->
      <g transform="translate(143.6625 324.487367) scale(0.1 -0.1)">
       <use xlink:href="#LastResortHE-Regular-7a"/>
       <use xlink:href="#LastResortHE-Regular-7a" transform="translate(114.75 0)"/>
       <use xlink:href="#LastResortHE-Regular-7a" transform="translate(229.5 0)"/>
       <use xlink:href="#LastResortHE-Regular-7a" transform="translate(344.25 0)"/>
       <use xlink:href="#DejaVuSans-1d" transform="translate(459 0)"/>
       <use xlink:href="#LastResortHE-Regular-7a" transform="translate(492.6875 0)"/>
       <use xlink:href="#LastResortHE-Regular-7a" transform="translate(607.4375 0)"/>
       <use xlink:href="#DejaVuSans-3" transform="translate(722.1875 0)"/>
       <use xlink:href="#DejaVuSans-10" transform="translate(753.96875 0)"/>
       <use xlink:href="#DejaVuSans-21" transform="translate(790.046875 0)"/>
       <use xlink:href="#DejaVuSans-3" transform="translate(873.84375 0)"/>
       <use xlink:href="#LastResortHE-Regular-7a" transform="translate(905.625 0)"/>
       <use xlink:href="#LastResortHE-Regular-7a" transform="translate(1020.375 0)"/>
       <use xlink:href="#LastResortHE-Regular-7a" transform="translate(1135.125 0)"/>
       <use xlink:href="#LastResortHE-Regular-7a" transform="translate(1249.875 0)"/>
       <use xlink:href="#DejaVuSans-1d" transform="translate(1364.625 0)"/>
       <use xlink:href="#LastResortHE-Regular-7a" transform="translate(1398.3125 0)"/>
       <use xlink:href="#LastResortHE-Regular-7a" transform="translate(1513.0625 0)"/>
      </g>
     </g>
    </g>
    <g id="ytick_12">
     <g id="line2d_21">
      <g>
       <use xlink:href="#mfe319e12fb" x="313.44375" y="347.472323" style="stroke: #000000; stroke-width: 0.8"/>
      </g>
     </g>
     <g id="text_22">
      <!-- 原因物:スポーツ用具 -&gt; 受傷部位:歯牙 -&gt; 受傷部位:顎顔面 -->
      <g transform="translate(7.2 351.271151) scale(0.1 -0.1)">
       <use xlink:href="#LastResortHE-Regular-7a"/>
       <use xlink:href="#LastResortHE-Regular-7a" transform="translate(114.75 0)"/>
       <use xlink:href="#LastResortHE-Regular-7a" transform="translate(229.5 0)"/>
       <use xlink:href="#DejaVuSans-1d" transform="translate(344.25 0)"/>
       <use xlink:href="#LastResortHE-Regular-6f" transform="translate(377.9375 0)"/>
       <use xlink:href="#LastResortHE-Regular-6f" transform="translate(492.6875 0)"/>
       <use xlink:href="#LastResortHE-Regular-6f" transform="translate(607.4375 0)"/>
       <use xlink:href="#LastResortHE-Regular-6f" transform="translate(722.1875 0)"/>
       <use xlink:href="#LastResortHE-Regular-7a" transform="translate(836.9375 0)"/>
       <use xlink:href="#LastResortHE-Regular-7a" transform="translate(951.6875 0)"/>
       <use xlink:href="#DejaVuSans-3" transform="translate(1066.4375 0)"/>
       <use xlink:href="#DejaVuSans-10" transform="translate(1098.21875 0)"/>
       <use xlink:href="#DejaVuSans-21" transform="translate(1134.296875 0)"/>
       <use xlink:href="#DejaVuSans-3" transform="translate(1218.09375 0)"/>
       <use xlink:href="#LastResortHE-Regular-7a" transform="translate(1249.875 0)"/>
       <use xlink:href="#LastResortHE-Regular-7a" transform="translate(1364.625 0)"/>
       <use xlink:href="#LastResortHE-Regular-7a" transform="translate(1479.375 0)"/>
       <use xlink:href="#LastResortHE-Regular-7a" transform="translate(1594.125 0)"/>
       <use xlink:href="#DejaVuSans-1d" transform="translate(1708.875 0)"/>
       <use xlink:href="#LastResortHE-Regular-7a" transform="translate(1742.5625 0)"/>
       <use xlink:href="#LastResortHE-Regular-7a" transform="translate(1857.3125 0)"/>
       <use xlink:href="#DejaVuSans-3" transform="translate(1972.0625 0)"/>
       <use xlink:href="#DejaVuSans-10" transform="translate(2003.84375 0)"/>
       <use xlink:href="#DejaVuSans-21" transform="translate(2039.921875 0)"/>
       <use xlink:href="#DejaVuSans-3" transform="translate(2123.71875 0)"/>
       <use xlink:href="#LastResortHE-Regular-7a" transform="translate(2155.5 0)"/>
       <use xlink:href="#LastResortHE-Regular-7a" transform="translate(2270.25 0)"/>
       <use xlink:href="#LastResortHE-Regular-7a" transform="translate(2385 0)"/>
       <use xlink:href="#LastResortHE-Regular-7a" transform="translate(2499.75 0)"/>
       <use xlink:href="#DejaVuSans-1d" transform="translate(2614.5 0)"/>
       <use xlink:href="#LastResortHE-Regular-7a" transform="translate(2648.1875 0)"/>
       <use xlink:href="#LastResortHE-Regular-7a" transform="translate(2762.9375 0)"/>
       <use xlink:href="#LastResortHE-Regular-7a" transform="translate(2877.6875 0)"/>
      </g>
     </g>
    </g>
    <g id="ytick_13">
     <g id="line2d_22">
      <g>
       <use xlink:href="#mfe319e12fb" x="313.44375" y="374.256106" style="stroke: #000000; stroke-width: 0.8"/>
      </g>
     </g>
     <g id="text_23">
      <!-- 受傷部位:歯牙 -&gt; 受傷部位:顎顔面 -->
      <g transform="translate(132.1875 378.054935) scale(0.1 -0.1)">
       <use xlink:href="#LastResortHE-Regular-7a"/>
       <use xlink:href="#LastResortHE-Regular-7a" transform="translate(114.75 0)"/>
       <use xlink:href="#LastResortHE-Regular-7a" transform="translate(229.5 0)"/>
       <use xlink:href="#LastResortHE-Regular-7a" transform="translate(344.25 0)"/>
       <use xlink:href="#DejaVuSans-1d" transform="translate(459 0)"/>
       <use xlink:href="#LastResortHE-Regular-7a" transform="translate(492.6875 0)"/>
       <use xlink:href="#LastResortHE-Regular-7a" transform="translate(607.4375 0)"/>
       <use xlink:href="#DejaVuSans-3" transform="translate(722.1875 0)"/>
       <use xlink:href="#DejaVuSans-10" transform="translate(753.96875 0)"/>
       <use xlink:href="#DejaVuSans-21" transform="translate(790.046875 0)"/>
       <use xlink:href="#DejaVuSans-3" transform="translate(873.84375 0)"/>
       <use xlink:href="#LastResortHE-Regular-7a" transform="translate(905.625 0)"/>
       <use xlink:href="#LastResortHE-Regular-7a" transform="translate(1020.375 0)"/>
       <use xlink:href="#LastResortHE-Regular-7a" transform="translate(1135.125 0)"/>
       <use xlink:href="#LastResortHE-Regular-7a" transform="translate(1249.875 0)"/>
       <use xlink:href="#DejaVuSans-1d" transform="translate(1364.625 0)"/>
       <use xlink:href="#LastResortHE-Regular-7a" transform="translate(1398.3125 0)"/>
       <use xlink:href="#LastResortHE-Regular-7a" transform="translate(1513.0625 0)"/>
       <use xlink:href="#LastResortHE-Regular-7a" transform="translate(1627.8125 0)"/>
      </g>
     </g>
    </g>
    <g id="ytick_14">
     <g id="line2d_23">
      <g>
       <use xlink:href="#mfe319e12fb" x="313.44375" y="401.03989" style="stroke: #000000; stroke-width: 0.8"/>
      </g>
     </g>
     <g id="text_24">
      <!-- 原因物:スポーツ用具 -&gt; 受傷部位:顎顔面 -->
      <g transform="translate(97.7625 404.838718) scale(0.1 -0.1)">
       <use xlink:href="#LastResortHE-Regular-7a"/>
       <use xlink:href="#LastResortHE-Regular-7a" transform="translate(114.75 0)"/>
       <use xlink:href="#LastResortHE-Regular-7a" transform="translate(229.5 0)"/>
       <use xlink:href="#DejaVuSans-1d" transform="translate(344.25 0)"/>
       <use xlink:href="#LastResortHE-Regular-6f" transform="translate(377.9375 0)"/>
       <use xlink:href="#LastResortHE-Regular-6f" transform="translate(492.6875 0)"/>
       <use xlink:href="#LastResortHE-Regular-6f" transform="translate(607.4375 0)"/>
       <use xlink:href="#LastResortHE-Regular-6f" transform="translate(722.1875 0)"/>
       <use xlink:href="#LastResortHE-Regular-7a" transform="translate(836.9375 0)"/>
       <use xlink:href="#LastResortHE-Regular-7a" transform="translate(951.6875 0)"/>
       <use xlink:href="#DejaVuSans-3" transform="translate(1066.4375 0)"/>
       <use xlink:href="#DejaVuSans-10" transform="translate(1098.21875 0)"/>
       <use xlink:href="#DejaVuSans-21" transform="translate(1134.296875 0)"/>
       <use xlink:href="#DejaVuSans-3" transform="translate(1218.09375 0)"/>
       <use xlink:href="#LastResortHE-Regular-7a" transform="translate(1249.875 0)"/>
       <use xlink:href="#LastResortHE-Regular-7a" transform="translate(1364.625 0)"/>
       <use xlink:href="#LastResortHE-Regular-7a" transform="translate(1479.375 0)"/>
       <use xlink:href="#LastResortHE-Regular-7a" transform="translate(1594.125 0)"/>
       <use xlink:href="#DejaVuSans-1d" transform="translate(1708.875 0)"/>
       <use xlink:href="#LastResortHE-Regular-7a" transform="translate(1742.5625 0)"/>
       <use xlink:href="#LastResortHE-Regular-7a" transform="translate(1857.3125 0)"/>
       <use xlink:href="#LastResortHE-Regular-7a" transform="translate(1972.0625 0)"/>
      </g>
     </g>
    </g>
    <g id="ytick_15">
     <g id="line2d_24">
      <g>
       <use xlink:href="#mfe319e12fb" x="313.44375" y="427.823674" style="stroke: #000000; stroke-width: 0.8"/>
      </g>
     </g>
     <g id="text_25">
      <!-- 原因物:スポーツ用具 -&gt; 受傷部位:歯牙 -->
      <g transform="translate(109.2375 431.622502) scale(0.1 -0.1)">
       <use xlink:href="#LastResortHE-Regular-7a"/>
       <use xlink:href="#LastResortHE-Regular-7a" transform="translate(114.75 0)"/>
       <use xlink:href="#LastResortHE-Regular-7a" transform="translate(229.5 0)"/>
       <use xlink:href="#DejaVuSans-1d" transform="translate(344.25 0)"/>
       <use xlink:href="#LastResortHE-Regular-6f" transform="translate(377.9375 0)"/>
       <use xlink:href="#LastResortHE-Regular-6f" transform="translate(492.6875 0)"/>
       <use xlink:href="#LastResortHE-Regular-6f" transform="translate(607.4375 0)"/>
       <use xlink:href="#LastResortHE-Regular-6f" transform="translate(722.1875 0)"/>
       <use xlink:href="#LastResortHE-Regular-7a" transform="translate(836.9375 0)"/>
       <use xlink:href="#LastResortHE-Regular-7a" transform="translate(951.6875 0)"/>
       <use xlink:href="#DejaVuSans-3" transform="translate(1066.4375 0)"/>
       <use xlink:href="#DejaVuSans-10" transform="translate(1098.21875 0)"/>
       <use xlink:href="#DejaVuSans-21" transform="translate(1134.296875 0)"/>
       <use xlink:href="#DejaVuSans-3" transform="translate(1218.09375 0)"/>
       <use xlink:href="#LastResortHE-Regular-7a" transform="translate(1249.875 0)"/>
       <use xlink:href="#LastResortHE-Regular-7a" transform="translate(1364.625 0)"/>
       <use xlink:href="#LastResortHE-Regular-7a" transform="translate(1479.375 0)"/>
       <use xlink:href="#LastResortHE-Regular-7a" transform="translate(1594.125 0)"/>
       <use xlink:href="#DejaVuSans-1d" transform="translate(1708.875 0)"/>
       <use xlink:href="#LastResortHE-Regular-7a" transform="translate(1742.5625 0)"/>
       <use xlink:href="#LastResortHE-Regular-7a" transform="translate(1857.3125 0)"/>
      </g>
     </g>
    </g>
   </g>
   <g id="patch_18">
    <path d="M 313.44375 458.357188 
L 313.44375 22.317187 
" style="fill: none; stroke: #000000; stroke-width: 0.8; stroke-linejoin: miter; stroke-linecap: square"/>
   </g>
   <g id="patch_19">
    <path d="M 703.990169 458.357188 
L 703.990169 22.317187 
" style="fill: none; stroke: #000000; stroke-width: 0.8; stroke-linejoin: miter; stroke-linecap: square"/>
   </g>
   <g id="patch_20">
    <path d="M 313.44375 458.357188 
L 703.990169 458.357188 
" style="fill: none; stroke: #000000; stroke-width: 0.8; stroke-linejoin: miter; stroke-linecap: square"/>
   </g>
   <g id="patch_21">
    <path d="M 313.44375 22.317187 
L 703.990169 22.317187 
" style="fill: none; stroke: #000000; stroke-width: 0.8; stroke-linejoin: miter; stroke-linecap: square"/>
   </g>
   <g id="text_26">
    <!-- 歯牙障害の事故パターン -->
    <g transform="translate(432.98196 16.317187) scale(0.12 -0.12)">
     <use xlink:href="#LastResortHE-Regular-7a"/>
     <use xlink:href="#LastResortHE-Regular-7a" transform="translate(114.75 0)"/>
     <use xlink:href="#LastResortHE-Regular-7a" transform="translate(229.5 0)"/>
     <use xlink:href="#LastResortHE-Regular-7a" transform="translate(344.25 0)"/>
     <use xlink:href="#LastResortHE-Regular-6e" transform="translate(459 0)"/>
     <use xlink:href="#LastResortHE-Regular-7a" transform="translate(573.75 0)"/>
     <use xlink:href="#LastResortHE-Regular-7a" transform="translate(688.5 0)"/>
     <use xlink:href="#LastResortHE-Regular-6f" transform="translate(803.25 0)"/>
     <use xlink:href="#LastResortHE-Regular-6f" transform="translate(918 0)"/>
     <use xlink:href="#LastResortHE-Regular-6f" transform="translate(1032.75 0)"/>
     <use xlink:href="#LastResortHE-Regular-6f" transform="translate(1147.5 0)"/>
    </g>
   </g>
  </g>
 </g>
 <defs>
  <clipPath id="p81f870cb2f">
   <rect x="313.44375" y="22.317187" width="390.546419" height="436.04"/>
  </clipPath>
 </defs>
</svg>
